<?xml version="1.0" standalone="no"?>
<!DOCTYPE svg PUBLIC "-//W3C//DTD SVG 20010904//EN"
 "http://www.w3.org/TR/2001/REC-SVG-20010904/DTD/svg10.dtd">
<svg version="1.0" xmlns="http://www.w3.org/2000/svg"
 width="800.000000pt" height="800.000000pt" viewBox="0 0 800.000000 800.000000"
 preserveAspectRatio="xMidYMid meet">

<g transform="translate(0.000000,800.000000) scale(0.100000,-0.100000)"
fill="#000000" stroke="none">
<path d="M0 4000 l0 -4000 4000 0 4000 0 0 4000 0 4000 -4000 0 -4000 0 0
-4000z m4168 2099 c14 -54 7 -94 -27 -145 -17 -26 -31 -51 -31 -55 0 -4 -16
-16 -36 -28 -19 -12 -32 -26 -29 -32 5 -7 15 -4 32 6 23 15 27 15 40 2 14 -13
13 -16 -6 -26 -16 -9 -29 -8 -58 5 -21 10 -41 16 -45 16 -24 -5 -2 32 41 70
27 23 52 54 56 67 5 16 4 21 -4 17 -6 -4 -11 0 -11 8 0 9 4 16 9 16 12 0 22
-29 15 -43 -3 -7 6 1 21 17 22 24 26 36 22 70 -2 23 -8 52 -12 66 -5 17 -4 22
3 15 5 -5 14 -26 20 -46z m-384 -27 c17 -33 18 -112 2 -112 -5 0 -3 -6 3 -14
14 -17 59 -27 67 -15 3 5 -9 9 -25 9 -17 0 -31 4 -31 10 0 11 63 1 68 -11 2
-4 14 -20 27 -35 l24 -28 -1 25 c-1 13 -7 28 -13 32 -6 5 -4 7 5 4 8 -2 16
-10 16 -18 3 -25 16 -59 23 -59 4 0 12 4 19 10 7 5 5 2 -4 -8 -14 -16 -16 -16
-28 0 -7 10 -15 16 -17 14 -2 -2 -33 1 -69 6 -90 14 -182 15 -198 3 -8 -5 -25
-20 -39 -33 -24 -22 -24 -22 -18 -1 6 19 4 20 -27 14 -18 -4 -41 -17 -51 -28
l-18 -22 6 22 c5 19 3 22 -12 16 -10 -3 -24 -11 -32 -17 -12 -9 -13 -8 -9 6 8
20 -15 31 -31 15 -6 -6 -14 -8 -17 -4 -4 4 8 13 27 21 30 12 35 12 46 -3 12
-15 14 -14 17 11 0 6 8 13 16 15 13 4 13 3 0 -6 -19 -13 0 -14 20 -1 8 5 11
10 5 10 -5 0 1 7 13 16 12 8 27 12 33 8 20 -12 -2 40 -30 70 -14 15 -52 46
-83 67 -32 22 -58 42 -58 45 0 6 10 0 78 -47 49 -35 112 -102 112 -119 0 -5 9
-6 20 -3 11 3 20 10 20 15 0 5 5 6 10 3 6 -3 10 -2 10 3 0 6 8 8 19 5 24 -6
34 10 42 67 l6 45 2 -46 c0 -26 -5 -53 -14 -65 -8 -10 -14 -28 -14 -39 0 -13
3 -15 6 -6 3 8 15 25 27 38 26 30 38 110 18 118 -8 3 -11 12 -8 20 3 8 2 15
-3 15 -4 0 -8 7 -8 15 0 20 28 -9 51 -53z m499 -5 c33 -54 45 -99 37 -132 -1
-5 -4 -22 -6 -36 -4 -32 -22 -79 -29 -79 -3 0 -3 17 1 38 4 26 3 34 -4 27 -6
-5 -13 -21 -15 -35 -8 -52 -22 -63 -57 -50 -3 1 -9 2 -14 1 -5 -1 -13 4 -17
11 -5 7 -9 8 -9 3 0 -6 -9 -11 -21 -12 -17 -2 -20 2 -15 20 3 12 6 37 6 55 0
45 16 40 24 -7 9 -59 33 -62 79 -9 38 43 67 92 67 112 0 6 -9 -7 -21 -29 -23
-43 -99 -123 -99 -104 0 6 19 29 42 50 34 31 42 45 42 74 0 19 3 35 7 35 4 0
10 7 13 16 3 8 2 13 -3 10 -4 -3 -16 14 -26 37 -11 23 -26 50 -34 60 -13 16
-13 17 1 12 8 -3 31 -34 51 -68z m-564 23 c0 -10 -3 -8 -9 5 -12 27 -12 43 0
25 5 -8 9 -22 9 -30z m562 23 c13 -16 12 -17 -3 -4 -10 7 -18 15 -18 17 0 8 8
3 21 -13z m-969 -21 c-3 -9 -1 -13 5 -9 15 9 73 -55 87 -98 15 -42 6 -103 -21
-144 -12 -19 -17 -21 -24 -10 -8 12 -11 12 -19 -1 -5 -8 -10 -21 -10 -29 0
-11 3 -11 17 0 15 13 15 12 2 -8 -11 -19 -15 -20 -22 -8 -4 9 -13 12 -20 8 -6
-4 0 11 13 33 41 67 60 108 60 126 0 25 -22 68 -48 98 -34 36 -44 57 -27 57 7
0 11 -7 7 -15z m1098 -55 c20 -33 6 -25 -30 17 -29 33 -30 37 -8 20 14 -10 31
-27 38 -37z m-1015 23 c10 -11 16 -20 13 -20 -3 0 -13 9 -23 20 -10 11 -16 20
-13 20 3 0 13 -9 23 -20z m150 -18 c-3 -3 -11 0 -18 7 -9 10 -8 11 6 5 10 -3
15 -9 12 -12z m-225 -96 c0 -41 -34 -122 -56 -130 -7 -3 -2 11 12 31 37 55 43
103 20 178 -4 11 0 7 8 -10 8 -16 15 -48 16 -69z m950 79 c0 -8 -2 -15 -4 -15
-2 0 -6 7 -10 15 -3 8 -1 15 4 15 6 0 10 -7 10 -15z m-670 1 c0 -11 -19 -15
-25 -6 -3 5 1 10 9 10 9 0 16 -2 16 -4z m737 -48 c-2 -13 -4 -5 -4 17 -1 22 1
32 4 23 2 -10 2 -28 0 -40z m-1160 10 c-3 -7 -5 -2 -5 12 0 14 2 19 5 13 2 -7
2 -19 0 -25z m273 7 c14 -19 14 -19 -2 -6 -10 7 -18 18 -18 24 0 6 1 8 3 6 1
-2 9 -13 17 -24z m207 -7 c-3 -7 -5 -2 -5 12 0 14 2 19 5 13 2 -7 2 -19 0 -25z
m-484 -113 c13 78 15 83 16 40 0 -35 -16 -93 -44 -159 -7 -17 -5 -18 21 -13
27 5 27 4 9 -9 -10 -8 -26 -14 -35 -14 -9 0 -51 -18 -95 -39 -91 -46 -148 -61
-139 -36 3 8 11 15 18 15 6 0 17 9 24 20 7 11 20 20 30 20 9 0 45 12 79 26 57
24 63 30 77 72 9 25 17 84 18 131 l2 86 5 -95 c6 -91 6 -93 14 -45z m1263 82
c-7 -32 -45 -101 -53 -93 -3 2 6 18 18 35 13 18 23 46 23 66 0 18 4 31 9 28 5
-3 6 -19 3 -36z m-913 -17 c8 -29 0 -24 -19 13 -14 27 -15 30 -2 19 9 -7 18
-22 21 -32z m1204 -70 c-5 -22 -3 -28 7 -24 9 4 16 -5 21 -24 6 -29 7 -30 35
-16 33 17 44 29 59 69 l11 30 -5 -30 c-5 -28 -48 -78 -75 -87 -7 -2 -9 -13 -5
-31 4 -15 11 -24 17 -21 5 3 17 -3 26 -14 9 -10 23 -17 30 -15 6 3 13 0 13 -6
1 -6 2 -17 3 -23 1 -15 35 -17 54 -4 7 5 12 4 12 -3 0 -6 9 -11 19 -11 14 0
18 5 14 20 -3 11 -9 20 -13 20 -13 0 -30 96 -24 129 4 17 16 38 27 48 l21 18
-18 -29 c-10 -16 -19 -46 -18 -65 0 -45 38 -131 57 -131 9 0 12 -6 9 -15 -4
-9 0 -15 10 -15 20 0 19 -1 1 43 -8 20 -14 60 -14 89 l2 53 6 -55 c7 -60 31
-116 48 -113 6 1 9 -6 5 -19 -3 -13 -1 -19 5 -15 6 4 23 40 38 82 15 42 29 74
32 71 3 -2 -11 -43 -30 -90 -19 -48 -31 -89 -27 -91 17 -10 40 8 59 48 12 23
21 35 21 26 0 -9 -11 -33 -25 -53 -13 -20 -21 -36 -17 -36 4 0 0 -5 -8 -10
-13 -9 -13 -10 1 -10 33 0 60 45 73 126 13 77 14 78 15 28 1 -51 -19 -115 -45
-144 -12 -14 -10 -16 19 -15 17 0 38 4 45 8 7 5 12 3 12 -5 0 -9 3 -9 11 2 6
9 8 56 5 115 l-4 100 10 -105 c5 -58 14 -115 20 -127 6 -11 7 -26 4 -32 -4 -6
-3 -11 2 -11 6 0 13 16 17 36 l6 37 25 -37 c15 -22 32 -35 42 -34 12 2 19 -7
23 -32 4 -19 7 -27 8 -17 0 11 6 15 12 11 7 -4 9 -22 6 -45 -4 -30 -2 -39 9
-39 8 0 14 -6 13 -12 -4 -31 2 -48 17 -48 12 0 15 -7 12 -25 -3 -13 -1 -22 3
-19 5 3 9 -1 9 -10 0 -8 -5 -16 -12 -18 -18 -6 2 -30 21 -25 11 3 23 -6 34
-25 9 -16 13 -26 7 -23 -5 3 -12 0 -16 -6 -4 -8 3 -9 25 -4 27 6 33 4 38 -13
3 -13 11 -18 19 -15 13 5 18 -7 15 -34 -3 -23 54 -19 84 5 12 10 8 4 -8 -11
-16 -16 -35 -26 -43 -23 -10 4 -11 0 -4 -19 6 -15 6 -27 -1 -30 -5 -4 -9 -3
-8 2 4 24 -2 43 -13 37 -7 -4 -8 -3 -4 4 9 16 3 15 -41 -3 -37 -16 -70 -5 -56
18 3 5 1 7 -4 4 -17 -11 -23 -47 -8 -47 8 0 17 -5 21 -12 4 -6 3 -8 -4 -5 -12
8 -42 -2 -42 -14 0 -5 40 -9 89 -9 93 0 108 7 90 42 -12 23 5 32 22 11 10 -12
10 -14 2 -9 -18 10 -16 -2 3 -21 11 -12 18 -13 27 -4 6 6 8 11 4 11 -4 0 -3 6
3 13 55 66 53 65 29 22 -34 -61 -45 -69 -107 -80 -44 -8 -59 -16 -69 -35 -19
-38 -3 -53 59 -55 30 -1 59 -5 66 -9 28 -17 7 -26 -60 -26 -40 0 -188 -7 -328
-14 -226 -13 -733 -29 -605 -20 132 10 295 51 295 74 0 6 7 10 16 10 13 0 13
2 1 14 -11 11 -78 15 -346 17 -323 4 -332 5 -329 24 2 10 12 22 24 25 13 3 20
12 18 23 -1 9 2 17 7 17 5 0 15 11 21 25 6 14 16 25 21 25 6 0 19 8 30 18 12
9 17 11 12 3 -5 -9 -3 -12 6 -9 7 2 23 -7 36 -21 19 -22 22 -23 23 -8 0 12 4
16 13 11 8 -5 7 -2 -2 9 -14 18 -9 32 12 32 7 0 15 14 18 30 4 17 7 22 8 12 0
-10 5 -16 10 -13 5 3 11 -6 14 -19 3 -20 1 -24 -12 -20 -9 2 -23 0 -31 -5 -8
-5 -10 -10 -4 -10 6 0 16 -31 23 -70 l13 -70 34 0 33 0 -19 45 c-12 29 -15 45
-8 45 6 0 1 11 -12 25 -21 22 -21 25 -6 25 10 0 31 11 48 25 16 14 34 25 39
25 13 0 11 -38 -3 -46 -8 -5 -9 -2 -5 9 9 24 -10 21 -23 -3 -6 -11 -15 -18
-20 -15 -5 3 -11 1 -14 -4 -8 -12 30 -44 43 -37 6 4 8 -2 6 -14 -2 -11 0 -22
5 -25 5 -3 7 4 5 16 -3 16 0 20 13 15 9 -3 5 4 -11 17 -27 23 -28 41 -2 30 9
-3 17 9 24 35 6 22 18 43 26 46 12 4 14 0 9 -18 -7 -29 22 -58 37 -35 5 8 9
20 9 26 0 18 37 10 53 -10 10 -14 21 -15 57 -7 3 0 -2 6 -11 13 -15 11 -15 15
-2 32 15 19 15 19 9 1 -5 -14 -3 -16 6 -9 25 19 47 23 41 7 -3 -7 -10 -14 -16
-14 -6 0 -7 -3 -4 -7 4 -3 0 -15 -10 -25 -9 -10 -14 -18 -11 -18 16 0 75 26
87 38 8 7 22 11 32 9 12 -3 16 0 12 9 -6 17 -5 17 -39 0 -15 -8 -32 -12 -37
-9 -5 3 3 12 19 20 16 7 21 11 12 9 -10 -3 -20 -2 -22 3 -3 4 14 7 37 6 36 -1
43 -5 45 -25 2 -14 7 -19 11 -12 9 15 51 4 51 -13 0 -7 -14 -18 -31 -24 -40
-14 -59 -14 -39 0 11 8 8 9 -13 4 -19 -4 -26 -2 -22 5 3 5 2 10 -3 10 -15 0
-22 -26 -11 -39 5 -6 6 -9 3 -6 -4 3 -14 -1 -23 -8 -14 -11 -14 -10 -2 6 12
15 11 17 -15 17 -19 0 -35 -9 -50 -27 -16 -20 -23 -23 -29 -13 -5 8 -4 11 2 7
6 -4 13 -1 16 7 5 11 -2 12 -39 2 -24 -6 -44 -15 -43 -20 0 -5 -16 -16 -36
-25 l-37 -16 22 -28 21 -27 -25 0 c-14 0 -28 5 -31 10 -9 15 -25 12 -25 -5 0
-18 54 -21 94 -5 21 8 26 16 26 45 0 22 4 34 10 30 6 -3 10 -15 10 -26 0 -10
5 -19 10 -19 6 0 10 -7 10 -15 0 -8 9 -15 21 -15 16 0 19 4 14 20 -8 24 19 55
40 46 8 -3 15 0 15 7 0 8 4 6 10 -3 7 -11 10 -11 10 -2 0 7 5 10 10 7 6 -3 11
4 11 17 1 17 3 18 6 6 5 -19 53 -26 53 -9 0 11 39 25 47 17 3 -3 1 -12 -6 -20
-9 -11 -6 -13 15 -13 14 0 22 2 17 6 -4 3 -8 34 -8 67 0 54 2 61 18 59 9 -2
17 2 17 8 0 9 2 9 8 1 4 -6 18 -15 31 -19 25 -8 25 -8 -10 -26 -19 -10 -28
-18 -21 -19 18 0 59 28 66 47 5 11 2 14 -11 9 -12 -5 -14 -4 -8 2 6 5 20 13
33 17 16 5 22 2 22 -9 0 -15 12 -21 34 -17 5 1 6 -4 3 -11 -3 -10 5 -12 34
-10 24 3 39 0 39 -7 0 -6 7 -11 15 -11 20 0 19 10 -2 27 -17 14 -17 14 0 9 19
-6 20 -5 11 18 -4 10 -18 16 -35 16 -16 0 -28 3 -28 8 3 17 -2 33 -8 29 -17
-10 -53 13 -53 33 0 12 -4 19 -10 15 -5 -3 -7 -12 -3 -20 3 -8 0 -15 -6 -15
-6 0 -12 -10 -12 -22 -2 -21 -2 -21 -7 2 l-5 25 -8 -25 -7 -25 -1 25 c-1 37
-37 38 -49 2 -9 -27 -9 -27 -16 -4 -9 26 -23 29 -29 5 -4 -15 -5 -14 -6 3 -1
16 -7 21 -28 20 -16 -1 -34 3 -42 9 -11 8 -12 3 -7 -25 5 -31 5 -32 -4 -10
-15 34 -32 42 -46 22 -12 -16 -13 -16 -19 1 -4 9 -11 17 -17 17 -5 0 -6 -5 -2
-12 5 -7 2 -9 -9 -5 -11 4 -14 2 -11 -7 3 -8 0 -17 -7 -22 -7 -4 -10 -3 -5 4
3 6 2 13 -4 17 -5 3 -11 -4 -11 -17 -2 -23 -2 -23 -6 1 -4 19 -7 21 -14 10 -7
-12 -9 -11 -9 2 0 20 -38 18 -51 -2 -5 -8 -9 -9 -9 -4 0 6 -16 12 -35 13 -30
2 -35 -1 -36 -20 -1 -19 -3 -18 -9 7 -5 19 -8 23 -9 11 -1 -19 -2 -19 -14 -2
-12 17 -15 17 -28 4 -11 -12 -16 -13 -26 -2 -19 19 -17 21 37 28 27 4 52 10
54 15 3 5 17 7 31 6 14 -2 25 0 25 3 0 13 60 12 60 -1 0 -7 5 -4 11 5 6 12 18
16 37 13 15 -2 63 -7 106 -9 44 -3 84 -10 88 -14 5 -5 32 -7 60 -4 36 3 53 1
58 -9 13 -20 30 33 22 66 l-8 27 -11 -24 c-13 -28 -53 -45 -53 -22 0 14 -24
22 -68 22 -40 1 -54 21 -47 66 l6 41 -20 -35 c-20 -35 -30 -25 -10 11 5 11 7
30 3 42 -7 21 -7 21 -15 2 -4 -11 -8 -33 -8 -48 -1 -16 -5 -26 -10 -23 -5 4
-12 0 -15 -6 -8 -16 0 60 8 87 4 11 -3 0 -14 -24 -20 -44 -21 -44 -36 -23 -8
12 -20 20 -25 17 -5 -4 -9 1 -9 10 0 9 -4 13 -10 10 -5 -3 -10 -2 -10 4 0 6
-7 8 -15 5 -8 -4 -15 -1 -15 5 0 14 -37 14 -45 1 -5 -8 -11 -7 -21 1 -11 9
-14 9 -14 0 0 -7 -5 -9 -10 -6 -6 3 -13 -1 -16 -10 -6 -13 -8 -14 -15 -3 -9
14 -1 108 11 121 4 4 5 19 2 33 -5 26 -30 32 -51 12 -11 -11 -14 -10 -18 0 -3
9 -13 7 -34 -9 -16 -11 -29 -16 -29 -10 0 6 15 18 33 27 22 12 27 19 17 22 -8
2 -23 14 -32 26 -10 11 -18 15 -18 9 0 -18 -20 -16 -20 2 0 8 -4 15 -8 15 -13
0 -31 -67 -25 -92 4 -19 3 -20 -6 -8 -6 8 -11 24 -11 35 0 17 -2 17 -10 5 -5
-8 -10 -10 -11 -5 0 6 -4 1 -9 -10 -8 -19 -9 -18 -9 4 -1 13 6 29 13 35 20 15
32 66 16 66 -10 0 -9 4 1 18 12 16 12 16 -5 0 -16 -14 -22 -15 -53 -1 -20 8
-41 12 -48 9 -7 -2 -16 -2 -19 2 -4 3 -14 7 -24 8 -9 2 -18 8 -20 13 -2 6 -8
11 -13 11 -6 0 -8 -4 -5 -9 4 -5 -2 -8 -11 -6 -10 2 -35 4 -56 4 -24 1 -36 5
-32 12 4 6 14 8 22 5 8 -3 12 -2 9 3 -3 5 1 12 10 15 11 4 15 2 11 -8 -5 -12
-1 -13 16 -7 12 4 38 6 57 4 67 -7 184 -2 196 8 7 6 15 20 17 32 l4 22 2 -22
c0 -12 -9 -32 -21 -44 -13 -12 -18 -19 -11 -15 6 3 13 1 15 -5 3 -8 21 -10 62
-5 l58 8 -7 44 c-6 41 -2 64 12 64 3 0 3 -13 0 -30z m-637 -5 c0 -2 -10 -9
-22 -15 -22 -11 -22 -10 -4 4 21 17 26 19 26 11z m174 -167 c2 -15 0 -25 -4
-23 -5 3 -11 -1 -13 -7 -3 -7 -6 7 -6 31 -1 42 -2 43 -19 28 -37 -33 -44 -15
-11 27 l21 27 15 -27 c7 -16 15 -40 17 -56z m-967 57 c0 -8 -4 -12 -9 -9 -5 3
-6 10 -3 15 9 13 12 11 12 -6z m1114 -40 c5 4 9 -5 9 -19 0 -13 -6 -26 -12
-28 -16 -6 -39 17 -35 34 2 7 2 10 0 6 -9 -16 -21 -7 -16 12 3 11 9 18 13 15
5 -3 12 0 17 7 6 9 9 6 11 -10 2 -12 8 -20 13 -17z m756 -2 c-3 -10 -5 -4 -5
12 0 17 2 24 5 18 2 -7 2 -21 0 -30z m-848 6 c6 9 10 0 13 -27 2 -22 0 -38 -4
-36 -5 3 -8 -5 -8 -18 -1 -15 -7 -7 -20 27 -24 61 -26 89 -4 60 12 -16 16 -17
23 -6z m131 0 c0 -6 7 -8 15 -5 11 4 17 -3 22 -24 3 -16 9 -27 14 -25 4 3 6
12 2 20 -3 9 1 15 8 15 11 0 11 3 -1 10 -13 8 -13 10 2 10 13 0 16 -7 13 -30
-6 -51 -16 -70 -35 -70 -10 0 -20 -3 -23 -7 -5 -10 1 12 8 30 3 8 -2 13 -14
14 -11 1 -22 -6 -24 -15 -3 -9 -4 7 -4 36 1 28 5 52 9 52 4 0 8 -5 8 -11z
m-253 -48 c-1 -16 -5 -27 -9 -24 -11 6 -10 53 2 53 5 0 8 -13 7 -29z m-1259
-81 c9 -5 36 -14 60 -20 l43 -11 -26 -21 c-32 -25 -75 -18 -75 13 0 12 -8 23
-20 26 -11 3 -20 9 -20 14 0 12 16 11 38 -1z m1319 -22 c-3 -7 -5 -2 -5 12 0
14 2 19 5 13 2 -7 2 -19 0 -25z m356 11 c-4 -13 -9 -17 -15 -11 -11 11 -3 32
12 32 4 0 6 -9 3 -21z m-1724 -3 c9 -11 9 -16 0 -21 -8 -6 -7 -10 5 -17 9 -5
16 -13 16 -18 0 -21 -36 -50 -62 -50 -18 0 -41 -13 -69 -40 -23 -22 -45 -40
-49 -40 -3 0 -25 -18 -49 -40 -23 -22 -47 -40 -52 -40 -5 0 -9 -6 -10 -12 0
-13 -19 -41 -77 -119 -25 -33 -32 -51 -29 -73 4 -26 -14 -79 -24 -73 -2 1 4
-6 14 -17 10 -10 16 -25 13 -33 -3 -8 -6 -21 -6 -29 0 -8 -6 -14 -14 -14 -18
0 -29 -29 -16 -45 6 -8 5 -18 -4 -31 -11 -15 -12 -22 -3 -33 10 -12 8 -13 -13
-7 -14 3 -49 12 -77 18 -29 6 -53 15 -53 20 0 6 7 8 15 4 13 -5 13 -1 -1 26
-15 30 -15 32 5 47 17 13 19 19 9 29 -9 9 -8 12 5 12 12 0 17 8 17 31 0 23 4
30 15 26 8 -4 17 -2 20 3 4 6 1 10 -4 10 -6 0 -11 5 -11 11 0 6 7 8 16 5 9 -4
13 -2 8 5 -4 7 -30 9 -73 6 l-66 -6 59 12 c33 7 61 18 64 26 4 11 -1 12 -19 7
-13 -4 -40 -9 -59 -11 -34 -4 -34 -4 -5 4 17 5 26 9 20 11 -17 3 28 19 57 19
31 1 47 19 27 32 -11 6 -10 9 3 14 10 4 20 16 24 28 8 24 45 80 57 85 13 6 7
20 -10 25 -10 3 -4 5 13 6 25 1 33 6 38 26 4 14 14 25 23 25 11 0 13 3 8 9 -6
6 -28 6 -53 1 -29 -5 -40 -4 -34 2 6 6 31 11 56 12 27 0 46 6 46 12 0 6 14 14
31 18 19 3 33 13 36 26 3 10 20 24 37 30 18 6 42 19 53 29 11 10 29 21 40 25
11 4 28 15 38 26 21 24 38 25 54 6z m1858 -43 c-3 -10 -5 -4 -5 12 0 17 2 24
5 18 2 -7 2 -21 0 -30z m-2100 21 c-3 -3 -12 -4 -19 -1 -8 3 -5 6 6 6 11 1 17
-2 13 -5z m1882 -11 c-3 -32 1 -44 12 -37 7 4 10 0 7 -11 -1 -10 -14 -20 -28
-22 -16 -2 -20 0 -12 5 7 5 12 17 11 28 -3 28 0 54 7 54 3 0 4 -8 3 -17z m192
3 c5 3 9 -1 9 -10 0 -8 2 -20 3 -28 2 -7 2 -10 0 -5 -3 4 -13 -3 -23 -15 -15
-18 -21 -20 -31 -11 -10 10 -9 20 5 50 11 21 21 32 23 25 3 -6 9 -10 14 -6z
m-365 -32 c-4 -14 -9 -24 -12 -21 -3 2 -2 17 2 31 3 15 9 25 11 22 3 -3 2 -17
-1 -32z m303 -10 c-6 -24 -17 -41 -25 -41 -10 0 -12 7 -8 21 7 20 37 66 41 62
1 -1 -3 -20 -8 -42z m-220 -11 c0 -30 -2 -33 -8 -18 l-8 20 -5 -20 c-4 -15 -6
-13 -7 8 -1 17 3 26 9 22 6 -3 10 1 10 9 0 9 2 16 5 16 3 0 5 -17 4 -37z
m-235 19 c3 -5 -1 -9 -9 -9 -8 0 -12 4 -9 9 3 4 7 8 9 8 2 0 6 -4 9 -8z m179
-20 c-3 -12 -9 -19 -14 -16 -5 3 -3 14 3 24 15 24 19 21 11 -8z m95 5 c-4 -29
-23 -32 -23 -4 0 13 6 24 13 24 7 0 12 -9 10 -20z m126 10 c3 3 6 1 6 -5 0 -6
-7 -18 -16 -26 -17 -18 -28 -21 -19 -6 3 6 1 10 -4 10 -6 0 -11 9 -11 20 0 17
3 19 19 11 10 -6 21 -7 25 -4z m813 -19 c-3 -8 -6 -5 -6 6 -1 11 2 17 5 13 3
-3 4 -12 1 -19z m-1150 -30 c-3 -8 -6 -5 -6 6 -1 11 2 17 5 13 3 -3 4 -12 1
-19z m400 0 c-3 -8 -6 -5 -6 6 -1 11 2 17 5 13 3 -3 4 -12 1 -19z m-550 -40
c-3 -8 -6 -5 -6 6 -1 11 2 17 5 13 3 -3 4 -12 1 -19z m-369 -65 c8 -7 16 -27
17 -44 l3 -32 -18 29 c-10 16 -21 43 -24 59 -4 17 -3 23 0 15 4 -8 13 -20 22
-27z m-135 15 c4 -10 8 -10 14 -1 6 8 15 1 31 -23 12 -19 18 -34 14 -34 -5 0
-15 11 -22 25 -17 32 -22 27 -11 -13 7 -24 6 -30 -4 -26 -16 7 -27 32 -19 45
3 5 1 9 -4 9 -6 0 -12 7 -16 15 -7 18 10 20 17 3z m176 -38 c0 -9 -4 -8 -9 5
-5 11 -9 27 -9 35 0 9 4 8 9 -5 5 -11 9 -27 9 -35z m30 -20 c0 -8 -7 -1 -14
15 -8 17 -14 37 -14 45 0 8 7 2 14 -15 8 -16 14 -37 14 -45z m-259 51 c0 -6
-5 -13 -12 -17 -6 -4 -8 -3 -4 4 3 5 0 13 -6 15 -8 3 -6 6 5 6 9 1 17 -3 17
-8z m408 -16 c-3 -3 -9 2 -12 12 -6 14 -5 15 5 6 7 -7 10 -15 7 -18z m-443 3
c5 4 5 1 1 -5 -4 -8 -2 -13 5 -13 9 0 9 -3 0 -14 -9 -11 -9 -16 0 -22 8 -4 9
-3 5 4 -4 7 -3 12 3 12 5 0 17 -14 25 -32 18 -35 21 -53 5 -25 -6 9 -14 15
-20 12 -5 -4 -9 -1 -9 5 0 6 -4 8 -10 5 -5 -3 -10 0 -10 8 0 7 -9 23 -21 35
-21 24 -17 51 5 33 7 -6 17 -7 21 -3z m462 -10 c-3 -8 -6 -5 -6 6 -1 11 2 17
5 13 3 -3 4 -12 1 -19z m-377 -42 c0 -6 -7 -1 -15 10 -8 10 -14 26 -14 34 0
16 28 -28 29 -44z m260 34 c0 -5 -2 -10 -4 -10 -3 0 -8 5 -11 10 -3 6 -1 10 4
10 6 0 11 -4 11 -10z m30 -25 c0 -5 -5 -3 -10 5 -5 8 -10 20 -10 25 0 6 5 3
10 -5 5 -8 10 -19 10 -25z m-430 -43 c0 -8 5 -10 13 -6 9 5 9 3 -1 -7 -11 -12
-14 -12 -22 1 -5 8 -6 18 -4 22 3 4 2 8 -3 8 -4 0 -9 12 -9 28 l-1 27 13 -30
c7 -16 13 -36 14 -43z m2035 38 c-10 -11 -20 -18 -23 -15 -7 6 18 35 31 35 5
0 2 -9 -8 -20z m-948 -25 c0 -8 -4 -12 -9 -9 -5 3 -6 10 -3 15 9 13 12 11 12
-6z m-1196 -32 c13 -16 12 -17 -3 -4 -10 7 -18 15 -18 17 0 8 8 3 21 -13z
m589 -11 c0 -15 -2 -15 -10 -2 -13 20 -13 33 0 25 6 -3 10 -14 10 -23z m-102
-3 c2 -11 -7 -14 -33 -13 -19 1 -38 -2 -41 -7 -9 -15 -21 -10 -27 11 -3 11 -1
20 4 20 5 0 9 -5 9 -10 0 -7 6 -7 20 0 11 6 20 7 20 3 0 -4 5 -2 12 5 15 15
32 10 36 -9z m72 4 c0 -13 -3 -13 -15 -3 -10 9 -15 9 -15 1 0 -16 -27 -14 -33
3 -4 10 3 14 29 14 24 0 34 -5 34 -15z m110 2 c0 -13 -21 -14 -37 -2 -9 6 -13
5 -13 -2 0 -7 -5 -9 -10 -6 -6 4 -8 10 -5 16 8 12 65 7 65 -6z m-643 -14 c0
-11 -5 -18 -9 -15 -4 3 -5 11 -1 19 7 21 12 19 10 -4z m1827 -21 c-6 -6 -10
-3 -10 10 0 13 4 16 10 10 7 -7 7 -13 0 -20z m-1517 -2 c-3 -8 -6 -5 -6 6 -1
11 2 17 5 13 3 -3 4 -12 1 -19z m41 11 c-2 -6 -8 -10 -13 -10 -5 0 -11 4 -13
10 -2 6 4 11 13 11 9 0 15 -5 13 -11z m779 -52 c0 -7 3 -26 6 -42 7 -28 6 -29
-8 -11 -16 21 -21 66 -7 66 5 0 9 -6 9 -13z m-937 -8 c0 -5 -4 -7 -10 -4 -5 3
-10 -2 -10 -11 0 -10 -3 -15 -6 -11 -9 9 3 37 16 37 5 0 10 -5 10 -11z m793
-6 c-7 -2 -19 -2 -25 0 -7 3 -2 5 12 5 14 0 19 -2 13 -5z m-43 -28 c0 -8 -2
-15 -4 -15 -2 0 -6 7 -10 15 -3 8 -1 15 4 15 6 0 10 -7 10 -15z m-442 -24 c0
-23 -3 -29 -15 -24 -10 4 -14 2 -9 -5 3 -6 2 -13 -4 -17 -15 -9 -12 12 5 45
19 37 22 37 23 1z m412 15 c0 -2 -8 -10 -17 -17 -16 -13 -17 -12 -4 4 13 16
21 21 21 13z m95 -14 c-3 -3 -11 0 -18 7 -9 10 -8 11 6 5 10 -3 15 -9 12 -12z
m712 -8 c-3 -3 -12 -4 -19 -1 -8 3 -5 6 6 6 11 1 17 -2 13 -5z m-2840 -10 c-3
-3 -12 -4 -19 -1 -8 3 -5 6 6 6 11 1 17 -2 13 -5z m1529 -36 c-9 -12 -16 -19
-16 -15 0 11 24 47 28 42 2 -2 -3 -14 -12 -27z m96 -6 c3 -11 0 -19 -7 -19 -7
0 -10 8 -7 19 2 10 6 18 7 18 1 0 5 -8 7 -18z m435 -24 c-3 -7 -5 -2 -5 12 0
14 2 19 5 13 2 -7 2 -19 0 -25z m-89 12 c-2 -5 -1 -9 2 -8 17 5 50 -26 50 -47
0 -22 -4 -25 -36 -25 -35 0 -35 1 -33 38 1 20 4 40 6 45 6 11 13 9 11 -3z
m-372 -51 c17 -34 17 -39 2 -39 -12 0 -48 65 -48 85 0 13 31 -17 46 -46z m182
3 c-2 -19 -10 -28 -24 -30 -18 -3 -21 1 -18 25 4 24 3 25 -5 8 -5 -11 -10 -14
-10 -7 -1 7 4 22 9 33 16 29 52 7 48 -29z m144 4 c-3 -22 -10 -36 -18 -36 -17
0 -18 33 -3 61 15 29 26 16 21 -25z m-246 -1 c19 -45 19 -45 -15 -45 -25 0
-29 4 -33 34 -3 24 0 32 9 29 7 -3 13 0 13 6 0 21 11 11 26 -24z m194 16 c0
-26 -10 -51 -21 -51 -5 0 -9 16 -9 35 0 24 5 35 15 35 8 0 15 -9 15 -19z
m1657 11 c6 -4 12 -34 14 -67 1 -36 8 -67 17 -77 11 -13 12 -18 3 -18 -10 0
-12 -49 -10 -213 2 -117 0 -218 -5 -225 -4 -7 -2 -12 8 -12 28 0 32 -113 4
-131 -5 -4 -8 -17 -6 -30 l5 -24 11 25 11 25 0 -27 c1 -20 -3 -26 -16 -23 -23
3 -43 -13 -43 -34 1 -13 3 -13 16 4 15 19 15 19 8 -10 -7 -34 10 -25 20 10 3
11 3 2 1 -19 -2 -22 -10 -43 -17 -48 -10 -6 -10 -8 0 -8 8 0 12 -6 9 -12 -2
-7 0 -21 4 -30 10 -19 1 -51 -12 -42 -13 8 -11 -10 3 -24 8 -8 8 -15 0 -24 -7
-9 -9 -42 -7 -86 3 -46 1 -71 -5 -67 -6 3 -10 -3 -10 -14 0 -12 -5 -20 -12
-18 -10 2 -25 -42 -30 -90 -1 -7 -5 -13 -10 -13 -4 0 -8 -7 -8 -15 0 -8 -6
-15 -12 -15 -9 0 -8 -4 2 -10 9 -6 11 -10 3 -10 -7 0 -10 -7 -6 -17 4 -10 2
-14 -4 -10 -13 8 -23 -14 -23 -49 0 -14 -4 -34 -10 -44 -14 -26 20 -38 38 -13
7 10 17 18 22 18 4 0 22 17 38 38 28 35 74 77 85 77 2 0 -17 -22 -42 -49 -50
-52 -91 -105 -91 -116 0 -17 23 4 52 49 18 27 44 56 58 64 l25 14 -25 -23
c-29 -28 -64 -79 -54 -79 4 0 0 -8 -10 -19 -16 -17 -15 -19 6 -35 l23 -17 -22
11 c-29 13 -29 11 2 -30 14 -19 25 -27 25 -19 0 12 2 12 10 -1 13 -20 13 -33
0 -25 -5 3 -10 2 -10 -4 0 -5 5 -13 10 -16 6 -3 10 -21 9 -38 0 -27 -2 -29 -9
-12 -7 17 -9 14 -9 -13 -1 -18 -5 -31 -10 -28 -5 3 -11 -13 -14 -37 -6 -46
-16 -94 -24 -117 -10 -25 -12 -40 -4 -36 4 3 13 1 20 -3 8 -5 -11 -13 -48 -20
-34 -7 -61 -14 -61 -17 0 -3 5 -15 11 -26 9 -16 8 -23 -2 -29 -10 -6 -11 -9
-1 -9 6 0 12 -9 12 -20 0 -11 5 -20 10 -20 6 0 10 -6 10 -14 0 -7 20 -21 45
-30 42 -16 105 -77 105 -101 0 -5 -11 7 -25 27 -35 52 -61 65 -86 42 -22 -20
-26 -12 -4 9 12 13 11 15 -10 13 -29 -1 -28 -1 -14 -27 8 -17 7 -24 -8 -36
-10 -8 -1 -6 19 5 36 20 37 20 35 1 -1 -12 -7 -17 -15 -14 -14 5 -22 -9 -26
-51 -1 -16 -7 -28 -14 -27 -6 2 -10 -6 -9 -17 1 -22 17 -28 18 -7 0 8 2 8 5 1
3 -8 26 -10 68 -7 71 6 103 -6 151 -58 26 -28 23 -26 -25 10 -53 42 -56 43
-118 39 -40 -3 -69 -10 -76 -19 -6 -7 -18 -15 -26 -17 -8 -2 -22 -10 -30 -18
-13 -13 -10 -13 22 1 44 18 153 21 142 4 -4 -6 -20 -8 -40 -4 -41 7 -113 -11
-121 -30 -3 -8 -9 -12 -14 -9 -5 3 -9 0 -9 -6 0 -7 -7 -10 -15 -6 -17 6 -30
-14 -39 -67 -5 -28 -3 -39 8 -43 19 -7 49 -71 42 -90 -3 -8 -12 -11 -23 -7
-16 6 -17 5 -3 -12 13 -17 10 -17 -24 3 -36 22 -39 22 -51 5 -25 -34 -25 -6 1
63 14 38 29 77 35 86 17 32 31 163 26 233 -5 63 -4 67 7 41 l13 -29 8 49 c21
131 -8 371 -41 343 -9 -7 -16 -5 -24 11 -6 12 -17 19 -25 16 -8 -3 -12 2 -11
12 2 9 8 17 15 17 6 0 16 7 21 15 7 10 10 11 10 3 0 -7 7 -13 16 -13 15 0 16
10 11 85 -3 47 -3 109 1 138 l6 52 12 -50 11 -50 9 60 c5 33 9 101 9 150 0 74
-4 98 -23 133 -23 44 -22 95 2 86 18 -7 50 32 42 52 -4 10 -1 21 6 26 10 6 10
8 -2 8 -13 0 -13 1 0 10 11 7 11 10 2 10 -7 0 -10 5 -7 10 4 6 1 18 -6 26 -10
12 -9 13 4 8 21 -8 41 28 24 45 -9 9 -8 14 3 21 12 8 12 10 1 10 -10 0 -12 8
-6 33 4 17 6 49 6 70 -1 27 2 37 13 37 10 0 13 6 9 16 -5 13 -7 13 -14 2 -5
-7 -9 26 -9 81 l0 93 30 -4 c21 -3 30 0 30 9 0 8 5 11 10 8 7 -4 6 -13 -1 -27
-8 -15 -8 -19 0 -14 6 4 11 2 11 -3 0 -6 5 -11 10 -11 15 0 12 44 -5 66 -11
14 -14 49 -15 137 0 114 -1 118 -20 112 -24 -8 -24 -7 -4 34 11 23 15 50 12
92 -2 33 -1 54 4 47 5 -7 8 32 6 89 -1 101 -2 102 -27 106 -24 4 -24 4 4 5 17
1 35 -2 42 -6z m-3458 -16 c-2 -2 -33 -6 -69 -9 -38 -3 -57 -1 -45 3 19 8 123
14 114 6z m1428 -18 c17 -28 11 -38 -23 -38 -30 0 -34 3 -34 25 0 20 5 25 24
25 14 0 28 -6 33 -12z m-584 -85 c-7 -2 -21 -2 -30 0 -10 3 -4 5 12 5 17 0 24
-2 18 -5z m-110 -10 c-7 -2 -19 -2 -25 0 -7 3 -2 5 12 5 14 0 19 -2 13 -5z
m-186 -29 c-3 -3 -20 -13 -38 -22 -18 -10 -37 -26 -43 -37 -17 -32 -30 -36
-39 -13 -10 28 6 43 68 62 60 18 60 18 52 10z m2982 -63 c0 -14 -1 -14 -6 -1
-3 8 -10 24 -15 35 -9 20 -9 20 6 1 9 -11 16 -27 15 -35z m-1252 33 c-3 -3
-12 -4 -19 -1 -8 3 -5 6 6 6 11 1 17 -2 13 -5z m-1837 -81 c0 -5 -4 -14 -9
-22 -7 -11 -11 -9 -20 8 -10 18 -9 21 9 21 11 0 20 -3 20 -7z m3118 -53 c0 -9
-3 -7 -8 5 -5 11 -8 29 -8 40 0 16 2 15 8 -5 4 -14 8 -32 8 -40z m9 -102 c-8
-94 -31 -226 -42 -236 -8 -7 -6 7 19 143 9 44 15 101 16 128 0 26 3 47 6 47 4
0 4 -37 1 -82z m-3964 32 c-9 -23 -23 -40 -32 -40 -14 0 -14 -2 -1 -11 13 -9
13 -10 -1 -6 -13 4 -21 -10 -39 -71 -18 -60 -23 -103 -24 -198 -1 -114 -2
-118 -14 -81 -14 40 -13 61 7 193 13 88 48 184 67 184 8 0 14 5 14 11 0 5 -6
7 -12 3 -7 -5 0 6 17 24 16 18 31 32 32 32 1 0 -6 -18 -14 -40z m1520 8 c2
-13 8 -32 12 -43 l7 -20 -14 20 c-20 27 -32 65 -20 65 5 0 12 -10 15 -22z
m2422 -8 c-3 -5 -14 -10 -23 -9 -14 0 -13 2 3 9 27 11 27 11 20 0z m-261 -57
c-79 -179 -122 -247 -70 -112 35 90 78 169 92 169 1 0 -8 -26 -22 -57z m75 5
c-21 -56 -54 -133 -68 -158 -8 -14 -76 -47 -69 -33 3 4 30 61 62 126 42 86 62
117 76 117 17 0 17 -2 -1 -52z m46 42 c3 -5 1 -10 -4 -10 -6 0 -11 5 -11 10 0
6 2 10 4 10 3 0 8 -4 11 -10z m2 -187 c-2 -27 -3 -5 -3 47 0 52 1 74 3 48 2
-27 2 -69 0 -95z m-2155 62 c11 -14 23 -23 28 -20 4 3 14 -3 21 -12 12 -14 12
-16 0 -9 -9 6 -12 5 -9 -5 3 -8 10 -13 16 -12 6 2 9 -3 6 -10 -2 -7 8 -24 23
-37 l28 -25 -24 28 c-14 15 -20 27 -15 27 5 0 24 -21 42 -47 17 -27 39 -58 48
-70 15 -20 15 -23 1 -23 -18 0 -73 62 -124 140 -20 30 -39 57 -42 60 -15 13
-33 40 -26 40 4 0 16 -11 27 -25z m2255 -42 c-3 -10 -5 -4 -5 12 0 17 2 24 5
18 2 -7 2 -21 0 -30z m-988 -8 c16 -8 35 -24 44 -37 27 -40 80 -94 73 -75 -4
12 -2 16 6 11 8 -5 9 -2 5 9 -7 18 8 24 18 7 4 -6 10 -8 15 -5 11 7 112 -60
103 -68 -11 -12 -19 -8 -51 23 -48 46 -59 36 -17 -16 43 -52 42 -66 -2 -26
-17 15 -39 33 -49 40 -11 7 -13 10 -5 6 10 -5 12 -3 6 5 -5 9 -10 10 -18 2 -6
-6 -38 -11 -72 -11 -36 0 -69 -6 -80 -13 -27 -20 -3 -30 42 -18 52 15 109 14
125 -2 7 -8 36 -25 63 -39 65 -32 106 -89 113 -158 4 -46 1 -56 -29 -98 -45
-63 -54 -72 -76 -72 -15 0 -18 7 -18 34 1 19 9 45 18 59 11 18 15 40 12 78 -2
30 -4 60 -5 67 0 10 -5 10 -20 2 -12 -6 -40 -14 -63 -18 -35 -6 -44 -12 -52
-38 -5 -16 -22 -45 -37 -64 l-26 -33 -56 24 c-48 21 -58 30 -75 70 -19 44 -24
47 -67 54 -52 7 -63 3 -44 -20 10 -12 10 -15 -5 -15 -9 0 -33 7 -52 16 -44 21
-61 8 -35 -27 11 -13 25 -41 31 -61 7 -21 25 -48 39 -60 15 -13 41 -43 58 -68
16 -25 39 -47 49 -49 11 -2 32 -13 46 -25 15 -11 35 -26 45 -33 17 -11 15 -11
-12 -7 -18 4 -34 1 -38 -5 -9 -14 -123 -14 -131 0 -5 7 4 9 26 7 45 -4 50 22
11 59 -112 105 -134 128 -146 151 -8 15 -23 35 -34 44 -37 31 -6 143 42 152
11 3 33 7 48 10 14 3 39 17 55 30 16 14 44 26 63 28 45 4 52 28 8 29 -18 1
-25 3 -15 6 17 4 16 8 -10 35 l-28 30 35 -7 c19 -4 39 -11 45 -16 16 -15 43
-10 81 16 20 14 43 25 51 25 8 0 11 5 8 11 -9 13 -60 3 -102 -21 -17 -10 -34
-15 -38 -12 -3 4 -41 14 -83 24 -42 9 -69 17 -59 17 10 1 17 9 17 20 0 22 12
25 138 28 57 2 93 -2 111 -12z m-437 -141 c-2 -13 -9 -27 -15 -31 -7 -4 -8 0
-4 11 4 10 7 30 7 44 0 18 3 23 9 14 4 -7 6 -24 3 -38z m1249 -79 c-5 -22 -13
-75 -16 -117 -6 -66 -5 -79 9 -84 9 -3 13 -10 10 -15 -3 -5 -9 -7 -13 -5 -4 3
-8 -8 -9 -24 -1 -43 -12 -72 -25 -67 -7 2 -20 0 -29 -4 -16 -8 -15 -6 1 33 23
53 35 128 21 128 -5 0 -10 -5 -10 -12 0 -18 -52 -118 -61 -118 -5 0 -9 6 -9
13 -1 34 -16 40 -63 22 -58 -22 -141 -14 -189 19 -37 24 -53 64 -22 51 11 -4
37 -9 59 -11 36 -3 37 -2 10 5 -28 8 -26 9 18 10 26 0 62 7 80 15 53 22 108
109 121 191 6 35 11 42 43 52 l35 11 -6 -77 -5 -76 14 70 c8 39 20 81 27 95
12 24 13 24 16 -20 2 -24 -1 -62 -7 -85z m-1048 78 c-7 -2 -19 -2 -25 0 -7 3
-2 5 12 5 14 0 19 -2 13 -5z m842 -34 c50 -8 75 -16 75 -25 0 -44 -72 -149
-113 -163 -60 -21 -171 -2 -172 29 -1 8 -7 26 -14 40 -10 17 -11 25 -2 28 6 2
11 10 11 18 0 12 9 14 44 9 26 -4 59 -2 80 5 57 18 54 31 -6 24 -29 -3 -71 -1
-93 4 -24 6 -31 10 -18 11 16 1 21 6 17 16 -5 12 5 15 55 15 33 0 94 -5 136
-11z m-1587 -209 c4 -10 12 -19 49 -50 17 -14 16 -15 -9 -18 -15 -2 -42 4 -60
14 -39 19 -128 85 -128 94 0 10 145 -29 148 -40z m-1958 -8 c0 -15 -2 -15 -10
-2 -13 20 -13 33 0 25 6 -3 10 -14 10 -23z m1795 -126 c0 -23 -28 -15 -59 17
-29 31 -76 114 -76 134 0 5 31 -25 68 -66 37 -41 67 -79 67 -85z m-1781 49 l4
-50 -19 39 c-20 42 -25 61 -9 36 8 -12 10 -10 10 9 0 40 9 18 14 -34z m1877
-18 c-8 -8 -17 -5 -34 11 l-22 23 33 -12 c24 -8 30 -15 23 -22z m1419 -28 c0
-5 33 -18 73 -30 72 -21 104 -38 77 -40 -8 -1 -19 -1 -24 0 -4 1 -17 -1 -28
-5 -19 -6 -19 -6 2 -21 29 -21 137 -53 177 -53 l31 0 1 -87 0 -88 -19 25 c-21
27 -27 12 -9 -21 6 -12 10 -72 10 -137 0 -64 3 -133 8 -152 11 -48 -1 -80 -28
-73 -12 3 -21 10 -21 15 0 5 -5 6 -11 3 -5 -4 -24 -9 -40 -12 -16 -2 -49 -13
-72 -23 -26 -12 -65 -20 -103 -20 -34 0 -74 -4 -90 -10 -16 -5 -74 -14 -129
-20 -55 -5 -125 -13 -156 -16 -53 -6 -56 -5 -64 17 -7 22 -8 22 -14 -11 l-6
-35 -17 25 c-10 13 -18 31 -18 40 0 8 -6 27 -14 42 -8 14 -16 60 -19 102 -3
42 -9 82 -14 89 -5 6 -17 32 -26 57 -9 25 -27 58 -38 72 -28 35 -81 159 -74
175 2 7 16 13 30 13 18 0 25 -5 25 -19 0 -34 52 -161 65 -161 10 0 8 16 -8 65
-11 35 -18 67 -15 70 8 9 35 9 101 0 42 -5 57 -4 57 5 0 10 3 10 15 0 12 -10
15 -10 15 3 0 16 20 27 51 27 13 0 19 -7 19 -23 0 -13 9 -35 21 -48 11 -13 25
-31 30 -39 8 -13 10 -13 19 0 5 8 10 31 10 51 0 35 2 37 71 68 46 20 73 39 76
51 3 11 13 20 23 20 17 0 49 74 37 86 -3 3 -25 -13 -50 -35 -49 -46 -105 -69
-172 -72 -56 -3 -73 10 -57 46 11 23 32 35 32 17 0 -4 16 -16 35 -26 52 -28
112 -9 160 52 19 25 35 55 35 66 1 21 1 21 15 2 8 -11 15 -23 15 -27z m-1317
21 c-14 -6 -32 -6 -45 0 -19 7 -15 9 22 9 37 0 41 -2 23 -9z m967 -11 c0 -24
-23 -21 -28 4 -2 10 3 17 12 17 10 0 16 -9 16 -21z m-1072 -31 c7 -7 12 -15
12 -19 0 -10 -58 10 -66 22 -8 14 40 11 54 -3z m1702 3 c0 -34 -96 -40 -129
-7 -14 15 -9 16 57 16 40 0 72 -4 72 -9z m-600 -76 c0 -45 -4 -65 -12 -65 -17
0 -38 46 -38 82 0 36 17 36 23 1 3 -23 4 -21 6 10 2 65 21 41 21 -28z m1015
-25 c3 -6 -1 -7 -9 -4 -18 7 -21 14 -7 14 6 0 13 -4 16 -10z m-1416 -258 c1
-24 -3 -41 -8 -37 -16 9 -62 98 -57 109 3 6 8 1 11 -11 12 -39 28 -27 21 15
-16 86 -18 112 -11 139 6 23 11 10 26 -72 10 -55 18 -119 18 -143z m1472 211
c13 -16 12 -17 -3 -4 -10 7 -18 15 -18 17 0 8 8 3 21 -13z m-402 -17 c7 -8 8
-17 3 -20 -6 -3 -12 3 -15 14 -6 24 -4 25 12 6z m-1039 -20 c0 -14 41 -89 81
-147 36 -53 86 -241 74 -278 -3 -10 5 -40 20 -69 26 -52 31 -72 17 -72 -9 0
-72 106 -72 121 0 5 -9 28 -19 52 -27 59 -59 165 -64 212 -3 22 -19 71 -35
110 -17 38 -28 73 -26 77 8 13 24 9 24 -6z m-698 -30 c6 4 16 0 22 -8 7 -9 28
-23 49 -31 24 -11 37 -23 37 -35 0 -16 -6 -18 -51 -12 -28 4 -54 11 -57 16 -4
6 -18 18 -32 27 -13 9 -19 17 -12 17 7 0 10 5 6 11 -3 6 0 15 7 20 8 5 15 4
17 -1 2 -6 9 -7 14 -4z m502 -135 c3 -58 4 -102 0 -99 -10 11 -31 187 -26 216
5 23 6 24 12 6 4 -10 10 -66 14 -123z m1623 83 c-3 -3 -12 -4 -19 -1 -8 3 -5
6 6 6 11 1 17 -2 13 -5z m-1535 -91 c8 -62 -9 -61 -19 1 -3 22 -2 36 5 36 5 0
12 -17 14 -37z m1531 20 c-7 -2 -21 -2 -30 0 -10 3 -4 5 12 5 17 0 24 -2 18
-5z m-3472 -20 c13 -17 13 -17 -6 -3 -11 8 -22 16 -24 17 -2 2 0 3 6 3 6 0 17
-8 24 -17z m236 -29 c-3 -3 -12 -4 -19 -1 -8 3 -5 6 6 6 11 1 17 -2 13 -5z m9
-19 c-11 -8 -40 -15 -65 -15 -25 0 -64 -4 -86 -9 -22 -5 -58 -6 -80 -2 -31 6
-13 9 85 15 68 4 131 11 140 16 24 14 27 11 6 -5z m-405 -31 c8 -8 20 -14 25
-14 5 0 18 -10 28 -21 15 -18 16 -23 5 -30 -12 -8 -12 -10 0 -18 8 -5 11 -16
8 -25 -3 -8 -2 -18 2 -21 5 -2 12 -21 16 -42 5 -30 3 -40 -12 -51 -17 -14 -17
-14 0 -8 16 5 17 0 14 -54 -3 -34 0 -60 5 -60 5 0 7 -4 4 -8 -2 -4 11 -7 30
-7 l34 2 -20 -22 c-11 -12 -20 -29 -20 -39 0 -14 5 -17 25 -12 21 5 25 3 25
-14 0 -12 5 -30 10 -40 9 -16 8 -18 -7 -13 -12 5 -11 1 5 -15 12 -12 27 -22
33 -22 8 0 8 -5 -1 -15 -7 -8 -10 -21 -7 -28 3 -8 1 -20 -3 -28 -5 -8 -5 -19
1 -26 6 -7 7 -18 3 -25 -5 -7 -7 -21 -6 -30 4 -22 -26 -30 -66 -18 -32 9 -82
-1 -82 -16 0 -4 8 -17 17 -28 16 -19 15 -19 -7 1 l-25 22 -110 -41 c-123 -45
-174 -55 -202 -39 -16 9 -15 10 9 11 32 0 174 43 238 72 41 19 43 21 25 34
-10 8 -14 14 -9 14 6 0 15 -5 22 -12 9 -9 21 -8 52 1 34 10 40 15 36 34 -6 31
-25 74 -25 59 -1 -7 4 -22 9 -32 7 -13 7 -21 -2 -26 -7 -4 -8 -3 -4 4 4 7 2
12 -3 12 -6 0 -10 3 -9 8 1 4 -1 17 -6 30 -6 18 -15 22 -47 22 -22 0 -53 -7
-69 -15 -41 -21 -38 -11 4 14 37 23 102 28 109 9 2 -7 8 -10 12 -6 4 4 2 21
-5 37 -6 16 -9 35 -4 42 4 7 3 10 -3 6 -10 -6 -32 13 -75 63 -10 11 -18 32
-18 46 0 20 -4 25 -16 20 -12 -4 -15 -2 -10 9 3 8 1 15 -5 15 -5 0 -2 11 7 25
12 18 13 25 4 25 -9 0 -8 6 3 18 11 12 17 35 16 63 0 24 -3 38 -6 32 -2 -7
-12 -13 -21 -13 -11 0 -13 3 -6 8 10 6 11 16 4 47 -6 26 1 46 13 38 6 -4 4 6
-7 21 -10 16 -13 26 -8 22 6 -3 13 -2 17 4 3 5 3 10 -2 11 -4 0 -20 3 -36 5
-15 3 -36 0 -47 -6 -15 -8 -20 -8 -20 3 0 8 6 14 13 15 28 2 87 29 80 37 -13
14 51 -6 68 -21z m-55 -209 c-4 -24 -16 -30 -16 -7 0 12 4 22 9 22 5 0 8 -7 7
-15z m2294 -26 c0 -6 -4 -7 -10 -4 -5 3 -10 11 -10 16 0 6 5 7 10 4 6 -3 10
-11 10 -16z m930 -48 c0 -3 -20 -17 -45 -30 -41 -22 -50 -23 -99 -13 -43 9
-61 8 -83 -2 -34 -17 -253 -32 -253 -18 0 5 26 12 58 16 31 3 80 11 107 16 28
6 93 14 145 18 52 4 104 12 114 18 18 11 56 8 56 -5z m-2978 2 c-6 -2 -10 -9
-6 -14 3 -5 0 -9 -5 -9 -12 0 -14 13 -4 23 3 4 11 7 17 6 6 0 5 -3 -2 -6z
m-272 -7 c0 -2 -12 -11 -27 -20 l-28 -17 24 20 c23 21 31 25 31 17z m2680 -65
c0 -16 -6 -19 -42 -16 -24 1 -58 3 -75 4 -18 0 -33 5 -33 10 0 10 37 17 108
19 35 2 42 -1 42 -17z m-2344 -31 c1 -22 -2 -40 -7 -40 -5 0 -6 8 -3 18 5 14
4 14 -5 2 -14 -21 -28 -3 -14 19 10 16 9 18 -8 14 -26 -7 -24 6 4 17 12 5 24
9 27 9 3 1 6 -17 6 -39z m3219 10 c-27 -12 -43 -12 -25 0 8 5 22 9 30 9 10 0
8 -3 -5 -9z m97 -6 c17 -9 41 -25 52 -37 l21 -21 -25 17 c-14 10 -43 26 -65
37 -22 11 -34 20 -27 20 7 0 27 -7 44 -16z m-342 -11 c-1 -19 -19 -35 -30 -28
-10 6 -9 11 5 22 22 15 25 16 25 6z m26 -60 c-5 -19 -10 -23 -16 -14 -5 8 -13
10 -21 5 -11 -6 -11 -4 0 10 11 13 16 14 22 4 6 -9 9 -5 9 11 0 13 3 22 6 18
4 -3 3 -18 0 -34z m265 10 l24 -26 -32 23 c-34 25 -39 30 -25 30 5 0 19 -12
33 -27z m-381 -3 c0 -12 -34 -30 -63 -34 -12 -1 -30 -6 -40 -10 -9 -5 -33 -6
-52 -4 -19 2 -36 -1 -38 -7 -3 -7 -18 -6 -48 2 -50 13 -68 12 -154 -10 -49
-13 -103 -15 -167 -8 -5 1 -8 8 -8 17 0 8 4 12 10 9 16 -10 150 -7 163 3 21
18 130 28 207 20 47 -5 84 -5 98 2 13 5 34 10 47 10 14 0 25 5 25 10 0 6 5 10
10 10 6 0 10 -4 10 -10z m-2860 -13 c0 -4 4 -6 9 -3 11 7 21 -17 21 -54 0 -16
-7 -30 -16 -34 -8 -3 -12 -11 -8 -17 4 -8 3 -9 -5 -5 -6 4 -8 12 -5 18 4 6 -1
17 -11 24 -13 10 -16 21 -11 45 5 25 3 30 -10 25 -8 -3 -12 -2 -9 3 7 12 45
10 45 -2z m2955 -27 c3 -5 1 -20 -6 -32 -9 -17 -9 -23 0 -26 12 -4 -7 -41 -37
-71 -7 -8 -11 -22 -9 -32 3 -10 2 -18 -2 -17 -21 2 -22 -5 0 -29 13 -15 17
-22 7 -15 -9 7 -18 9 -20 4 -1 -4 -13 10 -24 33 l-22 42 22 -4 c28 -6 45 28
39 80 -2 21 1 37 7 37 5 0 10 9 10 20 0 21 24 28 35 10z m-685 -26 c0 -8 -4
-12 -10 -9 -5 3 -10 10 -10 16 0 5 5 9 10 9 6 0 10 -7 10 -16z m730 -12 c0
-13 -12 -22 -22 -16 -10 6 -1 24 13 24 5 0 9 -4 9 -8z m300 -12 c6 -11 8 -20
6 -20 -3 0 -10 9 -16 20 -6 11 -8 20 -6 20 3 0 10 -9 16 -20z m-3535 0 c3 -5
0 -7 -9 -4 -8 3 -31 1 -52 -5 -21 -6 -40 -9 -42 -6 -5 5 55 23 80 24 9 1 20
-3 23 -9z m3236 -29 c-6 -10 -7 -22 -3 -26 4 -5 1 -5 -5 -1 -23 13 -15 37 15
45 1 1 -2 -7 -7 -18z m146 3 c-3 -3 -12 -4 -19 -1 -8 3 -5 6 6 6 11 1 17 -2
13 -5z m-278 -47 c0 -21 -1 -21 -9 -2 -12 28 -12 37 0 30 6 -3 10 -16 9 -28z
m91 9 c0 -3 -4 -8 -10 -11 -5 -3 -10 -1 -10 4 0 6 5 11 10 11 6 0 10 -2 10 -4z
m68 -21 c-3 -3 -9 2 -12 12 -6 14 -5 15 5 6 7 -7 10 -15 7 -18z m-72 -19 c3
-8 4 -27 2 -42 -3 -26 -4 -26 -18 -9 -9 11 -10 16 -2 11 16 -10 15 0 -4 29
-15 23 -15 25 0 25 9 0 19 -6 22 -14z m-3269 -32 c-3 -3 -12 -4 -19 -1 -8 3
-5 6 6 6 11 1 17 -2 13 -5z m-170 -208 c9 -14 95 -68 186 -116 76 -40 73 -47
-5 -10 -35 17 -68 30 -74 30 -6 0 -17 7 -24 15 -7 8 -34 26 -61 39 -26 14 -58
34 -71 45 -13 12 -31 28 -40 36 -10 8 -18 19 -18 25 0 12 97 -46 107 -64z
m3772 30 c32 -17 55 -42 44 -49 -11 -6 -94 49 -86 57 9 8 10 8 42 -8z m-3959
-226 c13 -9 13 -10 0 -10 -8 0 -22 5 -30 10 -13 9 -13 10 0 10 8 0 22 -5 30
-10z m3632 -76 c16 -9 27 -11 24 -5 -9 14 -5 14 50 0 32 -8 44 -16 44 -30 0
-10 5 -21 10 -24 6 -3 10 3 10 14 0 12 2 21 5 21 11 0 85 -33 82 -36 -2 -3
-20 3 -40 11 -35 15 -37 14 -37 -5 0 -13 7 -20 19 -20 11 0 56 -11 100 -25 45
-14 87 -25 94 -23 26 5 278 -121 367 -184 87 -62 176 -144 225 -208 51 -66
170 -272 130 -225 -14 17 -37 54 -51 83 -14 29 -39 67 -55 85 -16 17 -29 35
-29 40 0 21 -170 175 -231 209 -21 12 -39 25 -39 28 0 4 -28 20 -62 35 -35 16
-74 36 -88 46 -36 26 -251 95 -340 108 -41 7 -90 17 -108 22 -18 6 -44 12 -58
15 -14 3 -40 15 -57 27 -18 12 -34 23 -36 24 -2 1 -1 9 2 18 8 19 30 19 69 -1z
m-3682 -34 c8 -5 12 -11 10 -14 -3 -2 -14 2 -24 10 -22 15 -10 19 14 4z m3995
-56 c28 -20 15 -17 -31 6 -22 12 -28 18 -14 14 14 -4 34 -13 45 -20z m-4186
-59 c32 -20 41 -31 40 -53 l-1 -27 -7 25 c-4 14 -28 39 -56 59 -57 38 -38 35
24 -4z m-47 -10 c15 -19 16 -31 8 -62 l-10 -38 5 38 c3 31 -1 44 -20 63 -14
14 -25 27 -25 29 0 11 27 -8 42 -30z m149 -93 c-11 -20 -65 -45 -75 -35 -3 4
-6 1 -6 -5 0 -7 -5 -12 -11 -12 -24 0 0 27 47 51 27 14 50 24 52 23 2 -1 -1
-11 -7 -22z m-145 -82 c32 0 -22 -51 -86 -82 -36 -17 -76 -36 -90 -43 -14 -7
-42 -15 -62 -19 -21 -4 -38 -11 -38 -16 0 -6 -8 -10 -19 -10 -10 0 -29 -9 -42
-19 -14 -10 -53 -31 -89 -46 -35 -15 -95 -45 -133 -66 -38 -21 -71 -39 -75
-39 -3 0 -15 -9 -26 -19 -56 -52 -182 -91 -200 -63 -10 17 206 112 253 112 9
0 32 10 51 23 19 13 94 54 165 92 72 37 132 71 135 75 5 8 178 92 213 103 9 4
18 17 18 29 1 17 2 18 6 6 2 -10 11 -18 19 -18z m-871 -440 c-3 -5 -11 -10
-16 -10 -6 0 -7 5 -4 10 3 6 11 10 16 10 6 0 7 -4 4 -10z"/>
<path d="M3777 6043 c-10 -9 -9 -41 1 -47 5 -3 9 8 9 24 0 33 -1 33 -10 23z"/>
<path d="M3600 5897 c0 -8 7 -14 15 -14 11 0 12 4 4 14 -6 7 -13 13 -15 13 -2
0 -4 -6 -4 -13z"/>
<path d="M3332 6060 c7 -11 19 -22 28 -25 8 -4 4 5 -9 19 -29 31 -36 33 -19 6z"/>
<path d="M3376 6005 c15 -43 15 -73 0 -110 -20 -46 -14 -59 8 -16 20 39 20
102 0 127 -15 19 -16 19 -8 -1z"/>
<path d="M4718 5777 c-39 -15 -35 -23 11 -25 34 -2 38 1 34 18 -6 22 -7 22
-45 7z"/>
<path d="M5150 5148 c0 -4 7 -8 15 -8 8 0 15 4 15 8 0 5 -7 9 -15 9 -8 0 -15
-4 -15 -9z"/>
<path d="M5250 5136 c0 -9 -8 -16 -20 -16 -12 0 -20 -7 -20 -17 0 -13 3 -14
12 -5 19 19 30 14 18 -9 -11 -19 -13 -19 -29 -5 -10 9 -25 16 -34 16 -9 0 -17
7 -17 16 0 8 -5 12 -10 9 -8 -5 -8 -11 -1 -19 6 -7 7 -16 3 -20 -4 -4 -2 -7 3
-5 10 2 24 -2 74 -22 19 -8 22 -7 18 5 -4 9 -2 18 3 21 6 4 10 2 10 -4 0 -6 7
-8 15 -5 8 4 12 11 9 18 -3 6 2 2 10 -8 9 -11 16 -15 16 -9 0 14 34 23 62 15
21 -5 21 -6 2 -13 -14 -6 -8 -8 21 -8 49 -2 60 -9 60 -41 0 -18 -7 -27 -25
-31 -24 -6 -24 -7 5 -8 23 -1 33 5 42 24 6 14 7 25 3 25 -5 0 -7 8 -6 18 2 9
-2 20 -8 24 -7 5 -3 8 9 8 16 0 17 2 5 9 -8 6 -19 7 -25 3 -5 -3 -4 2 4 11 8
10 11 21 7 24 -4 4 -11 1 -16 -7 -6 -10 -25 -15 -60 -14 -27 0 -50 -3 -50 -7
0 -12 -40 -18 -41 -6 -1 7 -2 19 -3 27 -2 21 -46 26 -46 6z m37 -2 c-3 -3 -12
-4 -19 -1 -8 3 -5 6 6 6 11 1 17 -2 13 -5z"/>
<path d="M4840 5130 c0 -5 -7 -10 -15 -10 -8 0 -15 -7 -15 -16 0 -11 -6 -15
-20 -11 -11 3 -23 1 -26 -5 -3 -5 4 -12 16 -15 16 -4 18 -8 9 -14 -8 -4 -10
-12 -5 -16 5 -4 11 -3 13 3 2 6 11 20 19 30 9 10 13 14 10 8 -4 -9 5 -9 34 -2
43 11 53 24 20 24 -11 0 -20 -4 -20 -8 0 -4 -4 -8 -9 -8 -4 0 -6 11 -3 25 2
14 2 25 -2 25 -3 0 -6 -4 -6 -10z"/>
<path d="M5140 5062 c0 -5 7 -9 15 -9 8 0 12 4 9 9 -3 4 -9 8 -15 8 -5 0 -9
-4 -9 -8z"/>
<path d="M5009 4979 c-10 -6 -7 -9 14 -9 29 0 35 5 14 13 -8 3 -20 1 -28 -4z"/>
<path d="M5213 4983 c9 -2 23 -2 30 0 6 3 -1 5 -18 5 -16 0 -22 -2 -12 -5z"/>
<path d="M4948 4963 c7 -3 16 -2 19 1 4 3 -2 6 -13 5 -11 0 -14 -3 -6 -6z"/>
<path d="M4471 5684 c0 -11 3 -14 6 -6 3 7 2 16 -1 19 -3 4 -6 -2 -5 -13z"/>
<path d="M5720 4335 c0 -8 2 -15 4 -15 2 0 6 7 10 15 3 8 1 15 -4 15 -6 0 -10
-7 -10 -15z"/>
<path d="M5660 2810 c0 -5 5 -10 11 -10 8 0 7 -5 -1 -15 -11 -13 -10 -14 4 -9
20 8 21 44 1 44 -8 0 -15 -4 -15 -10z"/>
<path d="M5650 2690 c-9 -6 -10 -10 -3 -10 6 0 15 5 18 10 8 12 4 12 -15 0z"/>
<path d="M5546 4101 c-9 -24 -14 -46 -12 -49 8 -7 38 67 33 81 -2 6 -11 -9
-21 -32z"/>
<path d="M5199 3775 c-6 -22 -2 -34 18 -61 12 -17 36 -60 53 -97 17 -37 33
-67 36 -67 14 0 -11 81 -41 130 -18 30 -36 65 -39 78 -7 19 -24 31 -27 17z"/>
<path d="M4750 3645 c0 -5 14 -52 30 -104 17 -51 30 -99 30 -107 0 -7 11 -48
25 -91 16 -51 32 -83 46 -92 22 -13 22 -12 14 25 -5 22 -9 71 -9 109 -1 39 -6
79 -12 90 -7 11 -15 40 -19 65 -14 94 -22 108 -65 112 -23 2 -40 -1 -40 -7z"/>
<path d="M5200 3525 c0 -11 42 -160 46 -164 14 -14 0 87 -17 124 -19 41 -29
54 -29 40z"/>
<path d="M5465 3380 c3 -63 5 -116 5 -118 0 -2 5 0 11 4 12 7 5 131 -11 194
-7 25 -8 1 -5 -80z"/>
<path d="M4930 3371 c0 -20 39 -75 47 -67 3 2 0 20 -6 39 -13 39 -41 58 -41
28z"/>
<path d="M2240 3446 c0 -2 9 -6 20 -9 11 -3 20 -1 20 4 0 5 -9 9 -20 9 -11 0
-20 -2 -20 -4z"/>
<path d="M2460 3000 c-12 -8 -11 -10 8 -10 12 0 22 5 22 10 0 13 -11 13 -30 0z"/>
<path d="M5531 2925 c1 -19 18 -51 18 -35 0 8 -4 22 -9 30 -5 8 -9 11 -9 5z"/>
<path d="M5890 2597 c0 -3 12 -12 26 -22 15 -9 23 -12 20 -6 -7 11 -46 35 -46
28z"/>
<path d="M5625 2280 c4 -6 11 -8 16 -5 5 4 9 2 9 -4 0 -6 8 -7 17 -4 15 6 15
7 -3 14 -28 11 -46 11 -39 -1z"/>
</g>
</svg>
