<?xml version="1.0" standalone="no"?>
<!DOCTYPE svg PUBLIC "-//W3C//DTD SVG 20010904//EN"
 "http://www.w3.org/TR/2001/REC-SVG-20010904/DTD/svg10.dtd">
<svg version="1.0" xmlns="http://www.w3.org/2000/svg"
 width="1024.000000pt" height="768.000000pt" viewBox="0 0 1024.000000 768.000000"
 preserveAspectRatio="xMidYMid meet">

<g transform="translate(0.000000,768.000000) scale(0.100000,-0.100000)"
fill="#000000" stroke="none">
<path d="M4945 7604 c-22 -2 -96 -9 -165 -14 -415 -36 -857 -158 -1262 -348
-660 -310 -1257 -854 -1635 -1492 -286 -482 -460 -1024 -513 -1595 -11 -119
-15 -562 -6 -607 3 -12 8 -57 11 -98 10 -125 43 -327 79 -480 124 -529 347
-1001 676 -1435 94 -124 210 -258 217 -251 3 3 -22 36 -55 73 -440 500 -756
1165 -867 1827 -42 250 -57 443 -54 681 14 997 402 1918 1104 2620 507 508
1135 856 1827 1014 152 35 350 67 473 76 44 4 91 9 105 11 33 5 478 5 510 0
14 -2 63 -7 110 -11 137 -11 382 -52 539 -91 1456 -357 2564 -1551 2816 -3032
75 -440 70 -898 -16 -1342 -203 -1051 -833 -1954 -1756 -2513 -106 -64 -283
-161 -286 -156 -1 2 -22 42 -46 89 -58 109 -203 360 -242 417 -17 24 -38 47
-47 50 -10 4 -34 17 -54 30 -21 13 -44 23 -52 23 -8 0 -16 4 -18 8 -4 11 -96
74 -111 76 -7 1 -57 38 -111 84 -64 53 -106 81 -121 80 -11 -1 -34 7 -51 18
-29 21 -194 84 -217 84 -27 0 83 -82 163 -122 47 -23 90 -43 95 -43 6 0 30
-16 55 -34 25 -18 56 -38 70 -44 14 -7 48 -26 76 -44 40 -25 54 -29 63 -20 10
9 12 9 9 -3 -2 -8 2 -14 8 -13 7 1 19 -6 29 -17 17 -19 17 -19 -14 -10 -104
32 -101 34 -40 -23 59 -55 86 -97 49 -77 -10 5 -22 15 -26 22 -5 7 -2 8 7 3
10 -6 11 -5 4 3 -9 10 -190 92 -203 92 -17 0 149 -172 189 -194 l33 -20 -39
50 c-67 84 -61 82 25 -6 46 -47 87 -84 91 -82 5 1 8 -1 7 -5 -3 -11 22 -56 36
-65 7 -5 8 -8 0 -8 -5 0 -23 14 -40 31 -26 28 -73 59 -89 59 -4 0 17 -27 47
-61 100 -113 103 -124 13 -43 -97 87 -279 227 -414 317 -47 32 -82 57 -79 57
11 0 99 -42 158 -75 34 -19 64 -35 67 -35 2 0 -20 27 -49 61 -51 58 -152 128
-258 178 -25 11 -35 18 -22 15 50 -12 -63 74 -163 124 -110 56 -114 66 -10 26
59 -22 66 -23 54 -7 -9 12 -5 10 11 -4 14 -12 39 -27 55 -33 29 -11 28 -9 -15
34 -27 29 -61 52 -90 61 l-45 15 39 -5 39 -4 -38 39 c-51 53 -36 51 26 -2 39
-34 63 -46 120 -59 39 -9 67 -13 62 -9 -4 3 -30 24 -58 46 -27 21 -94 76 -148
121 -54 46 -103 83 -108 83 -6 0 -38 16 -72 36 -34 20 -62 35 -62 33 0 -2 -42
25 -92 60 -51 35 -93 65 -93 67 0 3 23 -7 51 -22 28 -14 54 -23 57 -20 3 4 15
-2 26 -12 12 -11 66 -42 121 -71 55 -29 96 -48 90 -43 -5 4 -46 38 -91 75
-132 108 -118 107 50 -6 88 -59 162 -104 165 -101 4 3 -6 15 -20 27 -141 119
-190 163 -224 204 l-40 48 80 -66 c44 -36 118 -92 165 -124 160 -110 471 -360
467 -374 -1 -5 9 -18 23 -30 44 -37 -7 -12 -122 60 -58 37 -109 65 -112 62 -3
-3 -14 0 -23 8 -10 7 7 -13 37 -44 54 -56 86 -81 39 -31 l-24 27 32 -17 c18
-9 45 -28 60 -42 22 -20 178 -104 203 -109 3 0 23 -13 45 -28 72 -50 115 -76
115 -71 0 3 -37 47 -82 96 -92 101 -264 253 -346 305 -29 19 -56 42 -59 51 -3
9 -23 55 -45 100 -41 90 -46 129 -28 222 16 83 85 229 138 290 156 181 253
227 494 229 73 1 167 4 208 7 135 11 276 69 341 141 21 24 20 24 -13 -4 -58
-49 -93 -56 -257 -50 -235 8 -435 58 -636 159 -202 102 -312 187 -334 257 -13
46 -7 413 10 519 17 108 55 215 89 247 34 32 38 45 14 45 -28 0 -209 100 -281
154 -131 101 -218 255 -238 426 -11 90 10 215 49 293 19 37 31 67 28 67 -4 0
-68 -9 -142 -20 -74 -11 -215 -31 -312 -45 l-178 -25 -62 21 c-75 25 -195 49
-247 49 -20 0 -43 6 -51 13 -12 10 -12 9 -1 -5 12 -17 9 -18 -42 -18 -74 0
-101 12 -163 70 -169 160 -360 34 -420 -278 -30 -156 -16 -249 61 -407 63
-127 105 -188 166 -236 40 -32 39 -29 -24 46 -75 89 -157 244 -183 347 -12 47
-15 89 -11 163 14 252 142 434 288 411 97 -16 124 -53 138 -195 9 -84 9 -86
54 -126 24 -22 54 -47 66 -55 28 -20 35 -63 16 -100 -8 -16 -20 -51 -26 -79
-13 -62 -1 -108 43 -175 18 -27 45 -67 61 -89 82 -122 -23 -277 -189 -277 -58
0 -186 35 -247 67 -89 47 -186 154 -244 268 -108 212 -125 349 -64 525 59 169
123 260 221 309 73 36 153 48 218 32 56 -15 150 -74 215 -136 26 -25 47 -41
47 -37 0 4 -5 13 -12 20 -7 7 -8 12 -3 13 17 1 97 9 235 24 74 8 212 19 305
25 94 5 195 12 225 15 112 10 377 37 438 44 61 7 64 7 73 -16 5 -14 9 -42 9
-63 l0 -39 -62 -7 c-35 -4 -58 -9 -52 -11 7 -2 5 -21 -7 -56 -23 -66 -24 -185
-3 -258 38 -127 103 -208 213 -262 59 -29 74 -32 156 -32 74 0 101 5 151 26
l61 25 10 -27 c14 -37 50 -58 109 -64 l49 -5 -55 14 c-58 15 -100 52 -100 87
0 25 23 71 44 88 9 7 13 18 9 24 -3 6 -1 7 6 3 34 -22 131 139 170 282 l20 72
-27 25 c-34 32 -148 87 -236 116 -58 18 -83 21 -157 16 -108 -7 -138 -20 -164
-72 -18 -36 -20 -60 -20 -220 0 -163 2 -184 22 -227 11 -25 32 -52 45 -59 35
-20 166 -36 222 -27 57 9 68 4 40 -17 -29 -22 -111 -38 -156 -31 -54 9 -134
51 -170 89 -55 60 -60 79 -71 272 -7 146 -12 183 -26 195 -22 20 -18 180 5
180 8 0 14 3 14 8 0 10 303 -4 370 -17 80 -16 112 -28 234 -83 131 -60 182
-67 300 -43 195 38 367 35 454 -9 49 -25 51 -27 55 -73 l3 -48 2 53 2 53 -55
25 c-31 14 -80 29 -110 33 -30 4 -57 10 -60 12 -11 12 28 49 51 49 14 0 23 3
21 8 -3 4 7 7 22 8 34 1 166 67 252 124 93 62 225 200 254 263 30 66 42 191
26 267 -28 130 -137 291 -255 374 -79 57 -212 120 -286 136 -94 20 -311 39
-395 35 -187 -9 -289 -29 -515 -97 -221 -67 -204 -65 -245 -29 -65 57 -155 92
-340 132 -116 26 -349 30 -495 10 -109 -16 -348 -95 -492 -164 -191 -91 -454
-274 -607 -421 -109 -106 -185 -209 -206 -280 -18 -61 -20 -321 -4 -476 11
-102 11 -107 -16 -195 -31 -99 -38 -224 -16 -300 15 -55 14 -147 -4 -258 -8
-50 -21 -168 -29 -262 -22 -248 -54 -367 -157 -575 -52 -103 -98 -181 -124
-210 -113 -123 -358 -471 -569 -808 -163 -262 -223 -387 -333 -697 l-64 -180
145 -141 c611 -598 1369 -959 2226 -1060 161 -19 551 -26 705 -13 340 28 656
95 968 204 l48 17 -28 18 c-43 26 -130 116 -168 173 -30 45 -42 54 -82 64
l-48 12 55 -4 c30 -3 82 -11 115 -20 l60 -15 -59 5 -58 5 78 -85 c42 -47 95
-100 116 -117 l39 -31 127 53 c235 98 402 187 627 335 913 600 1518 1554 1669
2630 8 61 18 128 21 150 14 84 13 619 0 750 -45 440 -164 865 -354 1261 -570
1185 -1694 1982 -3001 2129 -127 14 -518 26 -605 19z m415 -1524 c51 -7 175
-35 210 -47 10 -4 5 -8 -15 -14 -17 -5 -125 -4 -255 3 -249 12 -318 5 -451
-47 -107 -43 -250 -118 -278 -148 -14 -15 -62 -47 -106 -71 -45 -23 -119 -67
-165 -97 -47 -31 -106 -68 -131 -85 -93 -58 -302 -257 -315 -297 -3 -12 -12
-29 -19 -37 -23 -27 -55 -168 -55 -243 0 -39 -5 -92 -10 -115 -11 -45 -69
-128 -80 -115 -18 21 -29 128 -24 233 3 63 5 135 5 159 0 37 9 57 62 135 34
50 80 110 103 133 22 24 39 43 37 43 -2 0 2 6 9 14 7 8 17 11 22 8 5 -3 6 -1
3 5 -9 15 41 61 173 158 22 17 55 42 72 57 17 15 35 25 40 22 4 -3 8 -1 8 5 0
5 51 35 113 67 61 31 117 61 124 66 7 5 17 7 23 3 5 -3 10 -2 10 3 0 11 161
96 225 119 69 25 148 44 162 38 9 -3 11 0 7 7 -5 7 1 9 19 6 15 -3 28 -2 29 2
12 28 319 49 448 30z m1465 -30 c200 -22 387 -111 511 -242 79 -82 154 -238
154 -316 l-1 -37 -19 52 c-99 276 -343 476 -619 505 -214 23 -453 -9 -746 -98
-288 -88 -345 -109 -460 -166 -55 -28 -183 -88 -285 -133 -276 -124 -325 -148
-445 -219 -110 -65 -110 -65 -127 -44 -10 11 -18 23 -18 27 0 3 44 27 98 53
53 26 151 76 217 112 66 36 238 122 381 191 345 166 671 275 922 310 119 16
316 18 437 5z m-238 -56 c-3 -3 -12 -4 -19 -1 -8 3 -5 6 6 6 11 1 17 -2 13 -5z
m320 0 c-3 -3 -12 -4 -19 -1 -8 3 -5 6 6 6 11 1 17 -2 13 -5z m-1911 -808
c-34 -32 -126 -92 -126 -83 0 2 26 23 58 45 32 23 64 48 72 56 7 9 17 16 23
16 6 0 -6 -15 -27 -34z m100 -17 c3 -5 -3 -6 -12 -2 -11 4 -15 3 -10 -5 3 -6
1 -14 -5 -18 -8 -5 -8 -8 1 -14 6 -4 -15 -16 -50 -29 -34 -13 -64 -20 -67 -18
-2 3 5 8 16 12 12 3 21 11 21 16 0 6 5 7 10 4 6 -3 10 1 10 10 0 10 -5 13 -12
9 -8 -4 -10 -3 -5 2 5 5 14 9 20 9 7 0 12 5 12 12 0 6 4 15 9 20 5 5 6 2 1 -6
-5 -9 -3 -12 6 -9 8 3 13 10 12 16 -3 12 35 4 43 -9z m-361 -31 c-21 -18 -46
-38 -54 -45 -14 -10 -12 -11 9 -7 14 3 5 -4 -19 -16 -24 -11 -67 -36 -95 -56
l-51 -35 59 56 58 56 -75 -40 c-41 -23 -78 -41 -83 -41 -18 0 132 94 200 126
90 42 100 42 51 2z m-155 8 c0 -2 -7 -7 -16 -10 -8 -3 -12 -2 -9 4 6 10 25 14
25 6z m550 1 c0 -2 -17 -19 -37 -38 l-38 -34 34 38 c33 34 41 42 41 34z m70
-40 c0 -2 -10 -12 -22 -23 l-23 -19 19 23 c18 21 26 27 26 19z m875 -338 c85
-26 132 -51 181 -94 40 -35 30 -47 -16 -20 -14 8 -47 14 -74 15 -36 0 -55 6
-78 25 -20 17 -42 25 -68 25 -32 0 -43 -6 -72 -43 -25 -29 -51 -48 -86 -60
-27 -10 -58 -27 -68 -38 -37 -41 -38 -23 -7 114 12 54 20 70 42 82 40 22 166
19 246 -6z m-308 -331 c-3 -8 -6 -5 -6 6 -1 11 2 17 5 13 3 -3 4 -12 1 -19z
m90 -114 c20 -22 30 -25 59 -21 33 6 34 5 34 -29 0 -31 -3 -34 -28 -34 -16 0
-35 6 -43 13 -14 11 -59 82 -59 93 0 11 15 2 37 -22z m-1057 -44 c-6 -11 -13
-20 -16 -20 -2 0 0 9 6 20 6 11 13 20 16 20 2 0 0 -9 -6 -20z m170 -34 c0 -2
-8 -10 -17 -17 -16 -13 -17 -12 -4 4 13 16 21 21 21 13z m-75 -76 c-19 -20
-24 -30 -14 -30 8 0 21 6 29 13 12 10 12 9 1 -5 -11 -14 -8 -19 20 -33 17 -9
34 -13 38 -8 3 4 16 14 28 20 19 11 21 10 17 -2 -4 -8 -12 -15 -20 -15 -8 0
-14 -4 -14 -10 0 -14 39 -32 56 -26 8 3 13 0 11 -7 -1 -7 6 -11 15 -11 10 1
16 -2 13 -6 -3 -5 3 -11 14 -15 11 -3 24 -12 30 -19 9 -11 6 -12 -16 -8 -15 3
-34 12 -42 19 -7 8 -20 12 -27 9 -8 -3 -14 -1 -14 3 0 11 -56 31 -64 24 -3 -4
-6 -1 -6 4 0 6 -21 23 -46 37 -39 22 -50 24 -63 14 -14 -11 -14 -11 -3 4 11
14 9 19 -17 34 -16 10 -28 21 -25 26 3 4 15 -1 26 -12 28 -26 40 -25 68 5 13
14 26 25 29 25 2 0 -8 -13 -24 -30z m-161 -4 c-3 -9 -12 -12 -22 -9 -15 6 -9
11 25 22 1 1 0 -5 -3 -13z m56 -20 c0 -2 -7 -9 -15 -16 -13 -11 -14 -10 -9 4
5 14 24 23 24 12z m48 -152 c68 -25 131 -43 139 -40 9 4 11 2 7 -6 -5 -7 0 -9
14 -6 19 5 20 3 12 -13 -9 -16 -7 -18 17 -15 16 2 37 7 48 10 11 4 4 -2 -16
-13 l-36 -20 -41 20 c-33 17 -45 18 -64 9 -20 -10 -21 -9 -6 3 15 12 8 17 -64
42 -91 31 -188 74 -188 82 0 8 46 -5 178 -53z m121 29 c-7 -10 -14 -19 -15
-21 -1 -2 -4 4 -8 13 -3 9 -2 13 3 10 5 -3 12 -1 16 5 3 5 9 10 12 10 3 0 -1
-8 -8 -17z m258 -125 c-3 -8 -6 -5 -6 6 -1 11 2 17 5 13 3 -3 4 -12 1 -19z
m181 5 c-10 -2 -26 -2 -35 0 -10 3 -2 5 17 5 19 0 27 -2 18 -5z m-484 -22 c27
-6 46 -6 59 0 10 6 21 8 25 5 3 -3 0 -6 -6 -6 -7 0 -12 -4 -12 -10 0 -9 89
-27 118 -24 6 1 12 -2 12 -6 0 -11 48 1 60 15 6 7 20 10 31 8 19 -5 17 -8 -12
-21 l-34 -16 55 -6 c54 -7 53 -7 -23 -8 -82 -2 -137 -21 -137 -47 0 -10 12
-15 38 -16 20 -1 48 -5 62 -9 25 -8 25 -8 -5 -10 -16 -1 -49 -1 -72 0 -33 1
-44 -3 -53 -19 -6 -12 -7 -21 -3 -21 4 0 3 -4 -3 -8 -6 -4 -23 -25 -37 -47
-34 -50 -34 -41 -2 29 31 69 31 75 -2 72 -31 -2 -169 30 -193 45 -11 7 -7 9
15 5 114 -19 155 -18 191 3 19 12 41 21 47 21 7 -1 -5 -10 -25 -21 -46 -24
-49 -32 -8 -17 30 10 45 24 45 43 0 13 -111 36 -132 28 -10 -4 -14 -2 -10 4 4
7 -7 16 -29 23 -30 10 -38 10 -45 -1 -6 -10 -8 -7 -6 9 2 25 6 26 91 3z m366
-11 c-8 -5 -24 -9 -35 -9 -16 1 -16 2 5 9 35 11 48 11 30 0z m-420 -154 c-8
-8 -26 -17 -40 -21 -23 -6 -23 -5 5 14 35 23 56 27 35 7z m200 -16 c-8 -5 -19
-10 -25 -10 -5 0 -3 5 5 10 8 5 20 10 25 10 6 0 3 -5 -5 -10z m49 -77 c-41
-44 -118 -106 -104 -83 3 6 -2 10 -12 11 -11 0 -7 5 12 11 17 6 55 33 84 60
30 26 57 48 59 48 3 0 -15 -21 -39 -47z m131 32 c-14 -8 -29 -14 -35 -14 -5 0
1 6 15 14 14 8 30 14 35 14 6 0 -1 -6 -15 -14z m25 -30 c-22 -19 -31 -32 -21
-28 14 5 17 3 12 -6 -5 -7 -17 -11 -27 -8 -10 3 -17 1 -16 -3 1 -4 -21 -26
-50 -49 -56 -45 -67 -32 -17 20 26 28 141 109 154 109 3 0 -13 -16 -35 -35z
m-315 20 c0 -2 -13 -11 -30 -20 -38 -19 -40 -11 -2 9 31 17 32 18 32 11z m-70
-40 c0 -2 -10 -9 -22 -15 -22 -11 -22 -10 -4 4 21 17 26 19 26 11z m646 -32
c-27 -54 -86 -184 -86 -190 0 -3 8 0 18 8 10 8 7 4 -6 -9 -13 -13 -51 -82 -83
-155 -32 -73 -59 -126 -59 -120 0 17 58 200 77 243 9 19 24 52 35 74 13 25 15
36 6 31 -7 -4 -1 4 13 17 14 14 40 48 58 77 36 55 50 68 27 24z m-706 -8 c-7
-8 -17 -15 -22 -15 -6 0 -5 7 2 15 7 8 17 15 22 15 6 0 5 -7 -2 -15z m120 0
c0 -2 -13 -11 -30 -20 -38 -19 -40 -11 -2 9 31 17 32 18 32 11z m439 -27 c-7
-13 -23 -40 -36 -60 -13 -21 -21 -38 -17 -38 3 0 -10 -18 -29 -40 -18 -22 -53
-84 -76 -137 -48 -112 -115 -240 -105 -203 14 54 87 227 125 297 l40 74 -78
-51 c-67 -45 -72 -47 -38 -16 48 43 131 104 121 88 -3 -6 -1 -14 5 -18 7 -4 9
-3 5 4 -3 6 8 25 25 44 17 18 38 43 46 56 8 12 17 22 20 22 2 0 -2 -10 -8 -22z
m-570 -1 c-2 -1 -13 -9 -24 -17 -19 -14 -19 -14 -6 3 7 9 18 17 24 17 6 0 8
-1 6 -3z m61 -11 c0 -2 -7 -7 -16 -10 -8 -3 -12 -2 -9 4 6 10 25 14 25 6z
m-110 -21 c0 -2 -10 -9 -22 -15 -22 -11 -22 -10 -4 4 21 17 26 19 26 11z
m-983 -47 c-3 -8 -6 -5 -6 6 -1 11 2 17 5 13 3 -3 4 -12 1 -19z m1623 17 c0
-2 -10 -9 -22 -15 -22 -11 -22 -10 -4 4 21 17 26 19 26 11z m-1133 -37 c-3 -8
-6 -5 -6 6 -1 11 2 17 5 13 3 -3 4 -12 1 -19z m583 -2 c0 -2 -12 -11 -27 -20
l-28 -17 24 20 c23 21 31 25 31 17z m-823 -38 c-3 -7 -5 -2 -5 12 0 14 2 19 5
13 2 -7 2 -19 0 -25z m160 -5 c-3 -10 -5 -4 -5 12 0 17 2 24 5 18 2 -7 2 -21
0 -30z m833 -23 c-26 -65 -73 -153 -64 -120 9 34 71 170 78 170 3 0 -3 -23
-14 -50z m-853 -12 c-3 -8 -6 -5 -6 6 -1 11 2 17 5 13 3 -3 4 -12 1 -19z m572
-1 c-13 -12 -32 -33 -42 -47 -18 -25 -18 -25 -2 5 16 29 51 65 63 65 3 0 -6
-10 -19 -23z m211 9 c0 -2 -8 -10 -17 -17 -16 -13 -17 -12 -4 4 13 16 21 21
21 13z m597 -31 c-22 -34 -37 -44 -37 -25 0 7 50 60 57 60 1 0 -8 -16 -20 -35z
m-1640 3 c-3 -8 -6 -5 -6 6 -1 11 2 17 5 13 3 -3 4 -12 1 -19z m1754 -12 c-12
-18 -21 -41 -21 -51 0 -10 -3 -15 -7 -12 -3 4 -13 -1 -21 -11 -12 -15 -12 -14
0 8 8 14 18 38 22 53 3 15 10 25 15 22 5 -2 11 2 15 10 3 8 8 15 12 15 3 0 -4
-15 -15 -34z m-1134 -13 c-3 -10 -5 -4 -5 12 0 17 2 24 5 18 2 -7 2 -21 0 -30z
m243 24 c0 -2 -12 -14 -27 -28 l-28 -24 24 28 c23 25 31 32 31 24z m-734 -41
c0 -14 -5 -21 -9 -17 -4 4 -5 15 -1 24 9 24 12 21 10 -7z m268 -2 c3 -8 2 -12
-4 -9 -6 3 -10 10 -10 16 0 14 7 11 14 -7z m233 -136 c-2 -24 -4 -5 -4 42 0
47 2 66 4 43 2 -24 2 -62 0 -85z m-660 80 c-3 -8 -6 -5 -6 6 -1 11 2 17 5 13
3 -3 4 -12 1 -19z m784 -5 c-12 -20 -14 -14 -5 12 4 9 9 14 11 11 3 -2 0 -13
-6 -23z m-794 -45 c-3 -8 -6 -5 -6 6 -1 11 2 17 5 13 3 -3 4 -12 1 -19z m780
0 c-3 -8 -6 -5 -6 6 -1 11 2 17 5 13 3 -3 4 -12 1 -19z m-10 -40 c-3 -8 -6 -5
-6 6 -1 11 2 17 5 13 3 -3 4 -12 1 -19z m-655 -20 c-8 -8 -9 -4 -5 13 4 13 8
18 11 10 2 -7 -1 -18 -6 -23z m645 -20 c-3 -8 -6 -5 -6 6 -1 11 2 17 5 13 3
-3 4 -12 1 -19z m-532 -128 c16 -54 31 -97 34 -95 4 2 7 -4 7 -13 1 -9 16
-102 33 -205 18 -104 30 -191 28 -193 -8 -8 -87 312 -112 456 -28 162 -26 150
-21 150 2 0 16 -45 31 -100z m512 58 c-3 -8 -6 -5 -6 6 -1 11 2 17 5 13 3 -3
4 -12 1 -19z m-892 -50 c-2 -7 -13 -44 -25 -83 -26 -83 -131 -328 -137 -321
-9 9 70 221 136 369 20 43 36 64 26 35z m668 -208 c19 -52 38 -106 41 -120 13
-50 -48 77 -76 158 -52 155 -25 125 35 -38z m-126 108 c-3 -8 -6 -5 -6 6 -1
11 2 17 5 13 3 -3 4 -12 1 -19z m-419 -75 c-38 -69 -149 -238 -179 -273 -22
-26 48 112 84 165 40 59 119 165 123 165 2 0 -10 -26 -28 -57z m435 15 c3 -18
29 -143 56 -277 28 -135 49 -246 47 -249 -14 -13 -90 280 -105 403 -6 50 -14
107 -16 128 -6 46 10 41 18 -5z m397 -22 c0 -12 -5 -7 -19 24 -11 24 -11 24 3
6 9 -11 16 -24 16 -30z m-446 -54 c4 -29 3 -41 -4 -37 -5 3 -10 25 -10 47 0
51 5 47 14 -10z m453 16 c-3 -8 -6 -5 -6 6 -1 11 2 17 5 13 3 -3 4 -12 1 -19z
m-253 -4 c3 -8 2 -12 -4 -9 -6 3 -10 10 -10 16 0 14 7 11 14 -7z m-419 -56
c-8 -75 -13 -174 -15 -313 -1 -131 -13 -131 -24 0 -7 79 4 219 25 315 14 65
21 64 14 -2z m682 -15 c-3 -10 -5 -2 -5 17 0 19 2 27 5 18 2 -10 2 -26 0 -35z
m0 -55 c-3 -8 -6 -5 -6 6 -1 11 2 17 5 13 3 -3 4 -12 1 -19z m-814 -90 c-71
-94 -107 -137 -111 -134 -5 5 44 72 87 119 25 27 41 37 24 15z m-813 -128 c-6
-11 -13 -20 -16 -20 -2 0 0 9 6 20 6 11 13 20 16 20 2 0 0 -9 -6 -20z m-39
-77 c-12 -20 -14 -14 -5 12 4 9 9 14 11 11 3 -2 0 -13 -6 -23z m1740 -68 c7
-13 3 -12 -10 5 -11 14 -21 30 -21 35 0 11 14 -7 31 -40z m-1780 -36 c-11 -30
-20 -49 -20 -43 -1 15 30 106 35 101 2 -2 -5 -28 -15 -58z m1825 -26 c15 -20
23 -33 16 -29 -13 8 -56 66 -49 66 3 0 17 -17 33 -37z m-1496 -83 c-28 -55
-52 -100 -55 -100 -12 0 42 123 77 173 35 50 29 28 -22 -73z m777 78 c-3 -8
-6 -5 -6 6 -1 11 2 17 5 13 3 -3 4 -12 1 -19z m927 -14 c3 -8 2 -12 -4 -9 -6
3 -10 10 -10 16 0 14 7 11 14 -7z m-937 -26 c-3 -8 -6 -5 -6 6 -1 11 2 17 5
13 3 -3 4 -12 1 -19z m803 -48 c17 -22 30 -40 27 -40 -3 0 -22 21 -43 47 -21
26 -33 44 -27 40 6 -4 26 -25 43 -47z m715 -245 c111 -83 230 -186 170 -147
-16 10 -34 21 -40 23 -5 2 -73 46 -150 98 -171 115 -316 226 -370 281 -32 34
-9 21 120 -66 88 -59 210 -144 270 -189z m-2648 253 c-3 -8 -6 -5 -6 6 -1 11
2 17 5 13 3 -3 4 -12 1 -19z m1120 0 c-3 -8 -6 -5 -6 6 -1 11 2 17 5 13 3 -3
4 -12 1 -19z m-718 -100 c-45 -96 -119 -230 -119 -214 0 27 148 321 158 312 2
-2 -16 -46 -39 -98z m708 40 c-3 -7 -5 -2 -5 12 0 14 2 19 5 13 2 -7 2 -19 0
-25z m-1130 -20 c-3 -8 -6 -5 -6 6 -1 11 2 17 5 13 3 -3 4 -12 1 -19z m597
-30 c-118 -164 -260 -342 -238 -298 15 30 99 156 133 200 35 45 132 150 139
150 2 0 -13 -24 -34 -52z m1407 35 c13 -16 12 -17 -3 -4 -17 13 -22 21 -14 21
2 0 10 -8 17 -17z m209 -49 c29 -37 48 -64 41 -60 -13 8 -104 126 -97 126 2 0
28 -30 56 -66z m-1093 -11 c-3 -10 -5 -2 -5 17 0 19 2 27 5 18 2 -10 2 -26 0
-35z m-1130 15 c-3 -8 -6 -5 -6 6 -1 11 2 17 5 13 3 -3 4 -12 1 -19z m2099
-90 c19 -37 34 -71 34 -75 0 -5 -20 29 -44 74 -23 45 -47 88 -52 95 -5 8 -1 5
10 -7 10 -11 34 -50 52 -87z m-2109 50 c-3 -8 -6 -5 -6 6 -1 11 2 17 5 13 3
-3 4 -12 1 -19z m729 -71 c-35 -94 -125 -261 -111 -207 8 31 123 270 130 270
3 0 -6 -28 -19 -63z m-739 31 c-3 -8 -6 -5 -6 6 -1 11 2 17 5 13 3 -3 4 -12 1
-19z m1140 -60 c-2 -18 -4 -6 -4 27 0 33 2 48 4 33 2 -15 2 -42 0 -60z m460
-55 c-2 -27 -3 -5 -3 47 0 52 1 74 3 48 2 -27 2 -69 0 -95z m410 115 c-3 -8
-6 -5 -6 6 -1 11 2 17 5 13 3 -3 4 -12 1 -19z m333 -48 c17 -22 30 -40 27 -40
-3 0 -22 21 -43 47 -21 26 -33 44 -27 40 6 -4 26 -25 43 -47z m-2356 -4 c-3
-15 -8 -25 -11 -23 -2 3 -1 17 3 31 3 15 8 25 11 23 2 -3 1 -17 -3 -31z m2056
-31 c0 -5 -5 -3 -10 5 -5 8 -10 20 -10 25 0 6 5 3 10 -5 5 -8 10 -19 10 -25z
m-903 -57 c-3 -8 -6 -5 -6 6 -1 11 2 17 5 13 3 -3 4 -12 1 -19z m710 -65 c-3
-10 -5 -2 -5 17 0 19 2 27 5 18 2 -10 2 -26 0 -35z m248 17 c9 -16 13 -30 11
-30 -3 0 -12 14 -21 30 -9 17 -13 30 -11 30 3 0 12 -13 21 -30z m-968 -62 c-2
-18 -4 -6 -4 27 0 33 2 48 4 33 2 -15 2 -42 0 -60z m-1196 45 c-12 -20 -14
-14 -5 12 4 9 9 14 11 11 3 -2 0 -13 -6 -23z m1676 -40 c-2 -16 -4 -5 -4 22 0
28 2 40 4 28 2 -13 2 -35 0 -50z m590 5 c-3 -8 -6 -5 -6 6 -1 11 2 17 5 13 3
-3 4 -12 1 -19z m-2286 -15 c-12 -20 -14 -14 -5 12 4 9 9 14 11 11 3 -2 0 -13
-6 -23z m1846 -20 c-3 -10 -5 -2 -5 17 0 19 2 27 5 18 2 -10 2 -26 0 -35z
m410 -24 c39 -59 48 -68 55 -52 7 15 8 14 4 -4 -2 -13 0 -23 5 -23 5 0 9 -5 9
-12 0 -6 12 -27 27 -47 23 -31 23 -33 4 -16 -23 20 -166 225 -156 225 2 0 26
-32 52 -71z m-1562 -153 c9 -81 14 -150 12 -153 -11 -11 -36 142 -41 252 -7
152 7 106 29 -99z m1232 97 c-2 -21 -4 -6 -4 32 0 39 2 55 4 38 2 -18 2 -50 0
-70z m370 75 c-3 -8 -6 -5 -6 6 -1 11 2 17 5 13 3 -3 4 -12 1 -19z m-2316 -25
c-12 -20 -14 -14 -5 12 4 9 9 14 11 11 3 -2 0 -13 -6 -23z m1726 -30 c-3 -10
-5 -2 -5 17 0 19 2 27 5 18 2 -10 2 -26 0 -35z m600 15 c-3 -8 -6 -5 -6 6 -1
11 2 17 5 13 3 -3 4 -12 1 -19z m-1100 -25 c-3 -10 -5 -4 -5 12 0 17 2 24 5
18 2 -7 2 -21 0 -30z m390 -70 c-2 -21 -4 -4 -4 37 0 41 2 58 4 38 2 -21 2
-55 0 -75z m240 30 c-2 -16 -4 -3 -4 27 0 30 2 43 4 28 2 -16 2 -40 0 -55z
m-120 -20 c-3 -10 -5 -4 -5 12 0 17 2 24 5 18 2 -7 2 -21 0 -30z m-520 -10
c-3 -10 -5 -4 -5 12 0 17 2 24 5 18 2 -7 2 -21 0 -30z m530 -50 c-3 -10 -5 -4
-5 12 0 17 2 24 5 18 2 -7 2 -21 0 -30z m100 -55 c-2 -18 -4 -4 -4 32 0 36 2
50 4 33 2 -18 2 -48 0 -65z m100 60 c-3 -7 -5 -2 -5 12 0 14 2 19 5 13 2 -7 2
-19 0 -25z m110 10 c-3 -8 -6 -5 -6 6 -1 11 2 17 5 13 3 -3 4 -12 1 -19z
m-850 -25 c-3 -10 -5 -4 -5 12 0 17 2 24 5 18 2 -7 2 -21 0 -30z m-325 0 c-11
-16 -33 -39 -48 -53 l-29 -25 20 25 c28 36 68 80 73 80 2 0 -6 -12 -16 -27z
m745 -50 c-2 -16 -4 -5 -4 22 0 28 2 40 4 28 2 -13 2 -35 0 -50z m823 -3 c23
-27 40 -50 37 -50 -3 0 -24 23 -47 50 -23 28 -40 50 -37 50 3 0 24 -22 47 -50z
m-693 8 c-3 -7 -5 -2 -5 12 0 14 2 19 5 13 2 -7 2 -19 0 -25z m-560 -10 c-3
-7 -5 -2 -5 12 0 14 2 19 5 13 2 -7 2 -19 0 -25z m880 10 c-3 -8 -6 -5 -6 6
-1 11 2 17 5 13 3 -3 4 -12 1 -19z m111 -68 c0 -8 -6 1 -13 20 -7 19 -13 42
-13 50 0 8 6 -1 13 -20 7 -19 13 -42 13 -50z m1103 63 c13 -16 12 -17 -3 -4
-10 7 -18 15 -18 17 0 8 8 3 21 -13z m-1524 -55 c-3 -7 -5 -2 -5 12 0 14 2 19
5 13 2 -7 2 -19 0 -25z m1553 12 c6 -11 8 -20 6 -20 -3 0 -10 9 -16 20 -6 11
-8 20 -6 20 3 0 10 -9 16 -20z m-2133 -22 c-3 -7 -5 -2 -5 12 0 14 2 19 5 13
2 -7 2 -19 0 -25z m450 -15 c-3 -10 -5 -2 -5 17 0 19 2 27 5 18 2 -10 2 -26 0
-35z m1708 7 c-3 -5 -1 -10 6 -10 7 0 10 -3 6 -6 -9 -9 -28 6 -22 17 4 5 8 9
11 9 3 0 2 -4 -1 -10z m-1568 -22 c-3 -8 -6 -5 -6 6 -1 11 2 17 5 13 3 -3 4
-12 1 -19z m60 -35 c-3 -10 -5 -2 -5 17 0 19 2 27 5 18 2 -10 2 -26 0 -35z
m-660 -60 c-2 -21 -4 -6 -4 32 0 39 2 55 4 38 2 -18 2 -50 0 -70z m470 35 c-3
-7 -5 -2 -5 12 0 14 2 19 5 13 2 -7 2 -19 0 -25z m150 -20 c-3 -8 -6 -5 -6 6
-1 11 2 17 5 13 3 -3 4 -12 1 -19z m-140 -30 c-3 -7 -5 -2 -5 12 0 14 2 19 5
13 2 -7 2 -19 0 -25z m10 -55 c-3 -10 -5 -4 -5 12 0 17 2 24 5 18 2 -7 2 -21
0 -30z m-480 5 c-3 -8 -6 -5 -6 6 -1 11 2 17 5 13 3 -3 4 -12 1 -19z m630 -10
c-3 -8 -6 -5 -6 6 -1 11 2 17 5 13 3 -3 4 -12 1 -19z m-140 -40 c-3 -8 -6 -5
-6 6 -1 11 2 17 5 13 3 -3 4 -12 1 -19z m150 0 c-3 -8 -6 -5 -6 6 -1 11 2 17
5 13 3 -3 4 -12 1 -19z m10 -40 c-3 -8 -6 -5 -6 6 -1 11 2 17 5 13 3 -3 4 -12
1 -19z m463 -43 c0 -5 -5 -3 -10 5 -5 8 -10 20 -10 25 0 6 5 3 10 -5 5 -8 10
-19 10 -25z m-442 -35 c0 -9 -3 -7 -8 5 -5 11 -8 29 -8 40 0 16 2 15 8 -5 4
-14 8 -32 8 -40z m-288 -105 c11 -71 22 -146 25 -165 4 -32 4 -33 -6 -10 -20
46 -49 204 -48 265 1 77 4 68 29 -90z m1970 115 c6 -11 8 -20 6 -20 -3 0 -10
9 -16 20 -6 11 -8 20 -6 20 3 0 10 -9 16 -20z m35 -30 c3 -5 1 -10 -4 -10 -6
0 -11 5 -11 10 0 6 2 10 4 10 3 0 8 -4 11 -10z m-1235 -55 c0 -5 -5 -3 -10 5
-5 8 -10 20 -10 25 0 6 5 3 10 -5 5 -8 10 -19 10 -25z m1233 -6 c20 -11 37
-21 37 -23 0 -9 -77 20 -100 37 l-25 19 25 -7 c14 -4 42 -16 63 -26z m94 16
c0 -8 -4 -12 -9 -9 -5 3 -6 10 -3 15 9 13 12 11 12 -6z m-1780 -37 c-3 -8 -6
-5 -6 6 -1 11 2 17 5 13 3 -3 4 -12 1 -19z m473 -23 c0 -5 -5 -3 -10 5 -5 8
-10 20 -10 25 0 6 5 3 10 -5 5 -8 10 -19 10 -25z m100 0 c0 -5 -5 -3 -10 5 -5
8 -10 20 -10 25 0 6 5 3 10 -5 5 -8 10 -19 10 -25z m800 5 c69 -26 251 -112
246 -117 -9 -10 -306 118 -306 132 0 7 -1 7 60 -15z m-1839 -142 c12 -37 25
-68 29 -68 5 0 8 -12 8 -27 0 -16 7 -59 16 -96 9 -38 16 -74 15 -80 -1 -42
-101 277 -113 363 l-6 45 15 -34 c9 -19 25 -65 36 -103z m1979 25 c8 -8 -9 -3
-37 11 -29 15 -53 25 -53 23 0 -9 198 -165 203 -160 3 3 19 -4 36 -16 16 -12
75 -43 131 -70 68 -33 96 -50 85 -55 -9 -3 -25 -1 -36 5 -11 6 -73 28 -137 48
-64 21 -162 60 -217 86 -55 26 -118 54 -139 63 -22 9 -35 17 -30 19 15 5 170
-51 275 -98 91 -41 116 -48 84 -25 -11 8 -24 12 -29 9 -5 -4 -6 0 -1 7 6 10 4
12 -9 7 -11 -5 -15 -3 -10 5 4 6 3 8 -3 5 -18 -11 -104 54 -198 147 l-90 90
80 -43 c44 -24 87 -50 95 -58z m-1493 65 c-3 -8 -6 -5 -6 6 -1 11 2 17 5 13 3
-3 4 -12 1 -19z m-233 -83 c4 -60 3 -85 -4 -75 -9 13 -15 179 -6 169 2 -2 6
-44 10 -94z m2001 17 c-3 -3 -11 0 -18 7 -9 10 -8 11 6 5 10 -3 15 -9 12 -12z
m-1922 -124 c5 -47 4 -56 -3 -33 -6 17 -12 59 -15 95 -6 83 10 29 18 -62z
m1975 77 c-3 -3 -9 2 -12 12 -6 14 -5 15 5 6 7 -7 10 -15 7 -18z m-1911 -62
c-2 -16 -4 -5 -4 22 0 28 2 40 4 28 2 -13 2 -35 0 -50z m1476 -11 c37 -25 67
-47 67 -49 0 -9 -100 51 -132 79 -41 36 -23 28 65 -30z m-1324 -2 c0 -9 -4 -8
-9 5 -5 11 -9 27 -9 35 0 9 4 8 9 -5 5 -11 9 -27 9 -35z m48 28 c-3 -8 -6 -5
-6 6 -1 11 2 17 5 13 3 -3 4 -12 1 -19z"/>
<path d="M5065 3810 c-3 -5 -1 -10 4 -10 6 0 11 5 11 10 0 6 -2 10 -4 10 -3 0
-8 -4 -11 -10z"/>
<path d="M5129 3523 c-13 -16 -12 -17 4 -4 16 13 21 21 13 21 -2 0 -10 -8 -17
-17z"/>
<path d="M5430 4730 c-34 -7 -34 -7 -5 -8 17 0 44 4 60 8 27 7 27 8 5 8 -14
-1 -41 -4 -60 -8z"/>
<path d="M6668 4713 c-35 -9 -55 -19 -51 -26 4 -6 1 -7 -6 -2 -13 7 -55 -26
-71 -56 -29 -53 -35 -270 -8 -253 7 5 8 2 3 -5 -4 -8 2 -25 15 -43 l21 -29
-40 20 c-22 12 -45 30 -51 40 -5 11 -10 67 -10 125 0 82 -3 108 -16 120 -27
27 -53 1 -100 -99 -23 -51 -46 -104 -50 -119 -3 -14 -14 -31 -23 -36 -13 -7
-10 -9 14 -10 36 -1 107 -31 155 -68 19 -14 29 -18 21 -8 -8 9 -34 29 -58 43
-24 13 -43 27 -43 30 0 11 103 -8 158 -30 32 -11 60 -20 65 -19 4 1 7 -2 7 -7
0 -5 15 -19 33 -31 l32 -22 -29 25 c-16 14 -24 27 -18 31 12 7 131 -4 137 -14
2 -4 -9 -20 -25 -35 -26 -25 -31 -26 -47 -14 -16 12 -16 11 1 -8 10 -12 23
-21 30 -20 6 1 10 -3 9 -10 -2 -7 43 -56 98 -110 170 -164 260 -290 275 -382
4 -23 10 -41 15 -41 5 0 6 15 3 33 -17 91 -95 208 -222 336 l-83 84 28 24 28
24 -34 -16 c-32 -16 -34 -16 -55 4 -15 16 -17 21 -6 22 124 6 169 80 200 329
7 52 16 105 21 117 11 30 -18 65 -83 97 -61 30 -146 34 -240 9z m77 -68 c-19
-20 -35 -40 -35 -44 0 -5 -16 -9 -36 -8 -28 1 -42 -5 -60 -27 -13 -15 -24 -38
-24 -50 0 -13 -6 -29 -14 -35 -8 -7 -18 -26 -21 -42 -8 -34 -20 -38 -28 -9 -8
30 9 133 27 168 25 48 95 79 184 81 l43 1 -36 -35z m193 21 c24 -8 29 -28 9
-44 -9 -8 -24 -3 -57 19 -24 16 -46 31 -48 34 -6 6 71 -1 96 -9z"/>
<path d="M7047 4572 c-15 -15 -27 -33 -27 -38 0 -6 -20 -77 -44 -158 -31 -106
-53 -159 -76 -189 l-31 -42 39 42 c33 36 44 61 80 181 23 76 42 147 42 157 0
11 12 32 27 47 15 15 24 28 22 28 -3 0 -17 -13 -32 -28z"/>
<path d="M4103 4475 c-70 -30 -112 -165 -80 -260 24 -69 79 -137 135 -168 47
-26 120 -38 107 -18 -3 5 -1 12 5 16 24 15 -29 103 -54 88 -6 -3 -8 -3 -4 2 4
4 -4 21 -17 37 -36 43 -34 98 8 168 34 58 47 146 20 136 -7 -3 -13 -1 -13 4 0
15 -70 11 -107 -5z"/>
<path d="M6225 4330 c-13 -6 -15 -9 -5 -9 8 0 22 4 30 9 18 12 2 12 -25 0z"/>
<path d="M6340 4255 c-10 -12 -10 -21 0 -45 15 -37 45 -54 121 -69 31 -7 81
-27 110 -46 30 -19 60 -35 68 -35 8 0 50 -23 93 -51 43 -29 81 -49 84 -46 7 6
-51 65 -135 136 -48 41 -76 57 -118 67 -30 7 -73 25 -95 41 -103 71 -107 73
-128 48z"/>
<path d="M6499 4236 c15 -18 122 -69 129 -62 3 4 -2 14 -13 24 -10 9 -15 11
-11 5 11 -20 -4 -15 -62 17 -30 16 -49 23 -43 16z"/>
<path d="M6656 4184 c10 -41 50 -90 102 -125 24 -16 46 -28 48 -26 10 9 -58
97 -105 136 -52 44 -52 44 -45 15z"/>
<path d="M6288 4083 c12 -2 32 -2 45 0 12 2 2 4 -23 4 -25 0 -35 -2 -22 -4z"/>
<path d="M4003 4040 c59 -70 144 -124 212 -134 l40 -6 -45 17 c-69 27 -103 48
-172 105 -50 42 -57 46 -35 18z"/>
<path d="M6239 3804 c154 -75 208 -93 109 -36 -50 29 -246 113 -258 111 -3 0
64 -34 149 -75z"/>
<path d="M6490 3827 c0 -4 7 -19 16 -33 9 -13 29 -64 45 -112 22 -65 27 -76
23 -42 -9 60 -28 112 -58 157 -15 21 -26 34 -26 30z"/>
<path d="M6110 3748 c98 -48 109 -52 80 -28 -23 18 -121 61 -138 60 -4 -1 22
-15 58 -32z"/>
<path d="M6761 3708 c22 -57 36 -79 24 -38 -12 41 -34 90 -39 90 -3 0 4 -24
15 -52z"/>
<path d="M6790 3744 c0 -6 7 -19 16 -30 14 -18 14 -18 3 6 -14 31 -19 36 -19
24z"/>
<path d="M6649 3701 c12 -16 30 -49 41 -73 16 -33 19 -36 15 -14 -6 27 -60
116 -71 116 -3 0 4 -13 15 -29z"/>
<path d="M6140 3675 c30 -7 56 -12 58 -10 6 6 -62 25 -87 24 -16 0 -4 -6 29
-14z"/>
<path d="M6280 3677 c9 -8 110 -58 110 -53 0 7 -63 43 -90 51 -14 4 -23 5 -20
2z"/>
<path d="M6616 3650 c4 -19 10 -44 15 -55 l8 -20 0 20 c0 11 -7 36 -15 55
l-14 35 6 -35z"/>
<path d="M6468 3597 c23 -26 42 -52 42 -58 0 -7 3 -10 6 -7 10 11 -26 66 -58
89 -31 21 -30 20 10 -24z"/>
<path d="M7111 3605 c0 -25 7 -51 19 -70 11 -16 20 -25 20 -19 0 5 -5 15 -12
22 -7 7 -15 33 -19 60 l-6 47 -2 -40z"/>
<path d="M6100 3610 c-35 -7 -35 -7 10 -8 25 0 70 3 100 8 l55 7 -65 0 c-36 0
-81 -3 -100 -7z"/>
<path d="M6841 3495 c-40 -19 -82 -35 -93 -35 -12 0 -19 -2 -16 -5 3 -3 69 2
148 11 164 19 230 11 270 -31 30 -32 30 -88 0 -148 l-23 -46 -24 26 c-24 25
-27 25 -121 20 -64 -3 -125 -14 -179 -31 -79 -26 -153 -72 -136 -86 34 -29
228 -40 363 -20 35 5 66 7 68 5 2 -2 -1 -73 -6 -157 l-10 -153 -51 -100 c-51
-101 -37 -97 18 5 37 69 48 117 55 245 11 174 17 204 53 281 44 93 41 129 -14
187 -54 55 -82 67 -160 67 -58 0 -80 -6 -142 -35z"/>
<path d="M6630 3428 c-34 -12 -98 -23 -167 -29 -111 -8 -159 -21 -148 -40 9
-13 55 -11 138 6 73 16 275 84 247 84 -8 0 -40 -10 -70 -21z"/>
<path d="M6851 2963 c0 -65 4 -127 9 -138 5 -13 9 31 9 118 1 85 -3 137 -9
137 -6 0 -10 -45 -9 -117z"/>
<path d="M6952 2934 c-12 -54 -20 -99 -19 -101 8 -7 48 148 45 172 -2 16 -12
-13 -26 -71z"/>
<path d="M6655 2945 c16 -35 31 -62 33 -60 5 5 -39 103 -52 114 -6 5 2 -19 19
-54z"/>
<path d="M6560 2891 c29 -56 54 -100 56 -98 6 6 -83 184 -97 192 -6 4 12 -38
41 -94z"/>
<path d="M6375 2890 c12 -41 44 -88 78 -111 l32 -22 -32 34 c-17 19 -43 54
-58 79 -15 26 -24 35 -20 20z"/>
<path d="M5630 1596 c0 -3 28 -26 63 -52 60 -46 61 -46 27 -10 -31 34 -90 74
-90 62z"/>
<path d="M6004 1411 c7 -11 46 -35 46 -28 0 3 -12 12 -26 22 -15 9 -23 12 -20
6z"/>
<path d="M5820 1246 c0 -2 7 -7 16 -10 8 -3 12 -2 9 4 -6 10 -25 14 -25 6z"/>
<path d="M6150 1234 c0 -2 34 -26 75 -53 96 -63 172 -118 209 -150 21 -18 16
-8 -18 36 -50 64 -84 99 -95 97 -9 -2 -44 12 -111 45 -33 17 -60 28 -60 25z"/>
<path d="M6045 1123 c14 -13 125 -74 125 -69 0 9 -59 47 -97 62 -21 9 -33 12
-28 7z"/>
</g>
</svg>
